solid Fan shed 01
facet normal -1.0 0.0 0.0
  outer loop
    vertex 40.50000000000017 1.4000000000000017 16.500000000000004
    vertex 40.50000000000017 2.9000000000000004 1.9999999999999936
    vertex 40.50000000000017 1.3999999999999992 1.9999999999999936
  endloop
endfacet
facet normal -1.0 0.0 0.0
  outer loop
    vertex 40.50000000000017 2.9000000000000004 1.9999999999999936
    vertex 40.50000000000017 1.4000000000000017 16.500000000000004
    vertex 40.50000000000017 2.9000000000000017 16.500000000000004
  endloop
endfacet
facet normal -1.0143126227925458e-32 -1.0071308866242491e-16 -1.0
  outer loop
    vertex 40.50000000000017 2.9000000000000017 16.500000000000004
    vertex 25.500000000000203 1.400000000000003 16.500000000000004
    vertex 25.500000000000203 2.900000000000003 16.500000000000004
  endloop
endfacet
facet normal -1.0143126227925458e-32 -1.0071308866242491e-16 -1.0
  outer loop
    vertex 25.500000000000203 1.400000000000003 16.500000000000004
    vertex 40.50000000000017 2.9000000000000017 16.500000000000004
    vertex 40.50000000000017 1.4000000000000017 16.500000000000004
  endloop
endfacet
facet normal 1.0 0.0 0.0
  outer loop
    vertex 57.90000000000021 2.9000000000000004 1.9999999999999956
    vertex 57.90000000000021 1.400000000000003 27.5
    vertex 57.90000000000021 1.400000000000003 1.9999999999999956
  endloop
endfacet
facet normal 1.0 0.0 0.0
  outer loop
    vertex 57.90000000000021 1.400000000000003 27.5
    vertex 57.90000000000021 2.9000000000000004 1.9999999999999956
    vertex 57.90000000000021 2.9000000000000004 27.5
  endloop
endfacet
facet normal -1.159119251392585e-17 -1.0 4.681785197040532e-17
  outer loop
    vertex 57.90000000000021 1.400000000000003 1.9999999999999956
    vertex 40.50000000000017 1.4000000000000017 16.500000000000004
    vertex 40.50000000000017 1.3999999999999992 1.9999999999999936
  endloop
endfacet
facet normal -1.159119251392585e-17 -1.0 4.681785197040532e-17
  outer loop
    vertex 40.50000000000017 1.4000000000000017 16.500000000000004
    vertex 57.90000000000021 1.400000000000003 1.9999999999999956
    vertex 57.90000000000021 1.400000000000003 27.5
  endloop
endfacet
facet normal -1.159119251392585e-17 -1.0 4.681785197040532e-17
  outer loop
    vertex 40.50000000000017 1.4000000000000017 16.500000000000004
    vertex 57.90000000000021 1.400000000000003 27.5
    vertex 25.500000000000203 1.400000000000003 16.500000000000004
  endloop
endfacet
facet normal -1.159119251392585e-17 -1.0 4.681785197040532e-17
  outer loop
    vertex 25.500000000000203 1.400000000000003 16.500000000000004
    vertex 9.900000000000139 1.400000000000003 1.9999999999999956
    vertex 25.500000000000203 1.400000000000002 1.9999999999999936
  endloop
endfacet
facet normal -1.159119251392585e-17 -1.0 4.681785197040532e-17
  outer loop
    vertex 9.900000000000139 1.400000000000003 1.9999999999999956
    vertex 25.500000000000203 1.400000000000003 16.500000000000004
    vertex 9.900000000000139 1.400000000000003 27.5
  endloop
endfacet
facet normal -1.159119251392585e-17 -1.0 4.681785197040532e-17
  outer loop
    vertex 9.900000000000139 1.400000000000003 27.5
    vertex 25.500000000000203 1.400000000000003 16.500000000000004
    vertex 57.90000000000021 1.400000000000003 27.5
  endloop
endfacet
facet normal 1.375158400205327e-17 1.0 9.803203460000356e-18
  outer loop
    vertex 9.900000000000139 2.9000000000000004 1.9999999999999956
    vertex 25.500000000000203 2.900000000000003 16.500000000000004
    vertex 25.500000000000203 2.900000000000003 1.9999999999999936
  endloop
endfacet
facet normal 1.375158400205327e-17 1.0 9.803203460000356e-18
  outer loop
    vertex 25.500000000000203 2.900000000000003 16.500000000000004
    vertex 9.900000000000139 2.9000000000000004 1.9999999999999956
    vertex 9.900000000000139 2.9000000000000004 27.5
  endloop
endfacet
facet normal 1.375158400205327e-17 1.0 9.803203460000356e-18
  outer loop
    vertex 25.500000000000203 2.900000000000003 16.500000000000004
    vertex 9.900000000000139 2.9000000000000004 27.5
    vertex 40.50000000000017 2.9000000000000017 16.500000000000004
  endloop
endfacet
facet normal 1.375158400205327e-17 1.0 9.803203460000356e-18
  outer loop
    vertex 40.50000000000017 2.9000000000000017 16.500000000000004
    vertex 57.90000000000021 2.9000000000000004 1.9999999999999956
    vertex 40.50000000000017 2.9000000000000004 1.9999999999999936
  endloop
endfacet
facet normal 1.375158400205327e-17 1.0 9.803203460000356e-18
  outer loop
    vertex 57.90000000000021 2.9000000000000004 1.9999999999999956
    vertex 40.50000000000017 2.9000000000000017 16.500000000000004
    vertex 57.90000000000021 2.9000000000000004 27.5
  endloop
endfacet
facet normal 1.375158400205327e-17 1.0 9.803203460000356e-18
  outer loop
    vertex 57.90000000000021 2.9000000000000004 27.5
    vertex 40.50000000000017 2.9000000000000017 16.500000000000004
    vertex 9.900000000000139 2.9000000000000004 27.5
  endloop
endfacet
facet normal 1.0 0.0 0.0
  outer loop
    vertex 25.500000000000203 2.900000000000003 1.9999999999999936
    vertex 25.500000000000203 1.400000000000003 16.500000000000004
    vertex 25.500000000000203 1.400000000000002 1.9999999999999936
  endloop
endfacet
facet normal 1.0 0.0 0.0
  outer loop
    vertex 25.500000000000203 1.400000000000003 16.500000000000004
    vertex 25.500000000000203 2.900000000000003 1.9999999999999936
    vertex 25.500000000000203 2.900000000000003 16.500000000000004
  endloop
endfacet
facet normal 0.0 1.1102230246251563e-16 1.0
  outer loop
    vertex 57.90000000000021 1.400000000000003 27.5
    vertex 9.900000000000139 2.9000000000000004 27.5
    vertex 9.900000000000139 1.400000000000003 27.5
  endloop
endfacet
facet normal 0.0 1.1102230246251563e-16 1.0
  outer loop
    vertex 9.900000000000139 2.9000000000000004 27.5
    vertex 57.90000000000021 1.400000000000003 27.5
    vertex 57.90000000000021 2.9000000000000004 27.5
  endloop
endfacet
facet normal 1.2155027942016773e-16 8.569192847734325e-33 -1.0
  outer loop
    vertex 57.90000000000021 2.9000000000000004 1.9999999999999956
    vertex 40.50000000000017 1.3999999999999992 1.9999999999999936
    vertex 40.50000000000017 2.9000000000000004 1.9999999999999936
  endloop
endfacet
facet normal 1.2155027942016773e-16 8.569192847734325e-33 -1.0
  outer loop
    vertex 40.50000000000017 1.3999999999999992 1.9999999999999936
    vertex 57.90000000000021 2.9000000000000004 1.9999999999999956
    vertex 57.90000000000021 1.400000000000003 1.9999999999999956
  endloop
endfacet
facet normal -1.0 0.0 0.0
  outer loop
    vertex 9.900000000000139 2.9000000000000004 27.5
    vertex 9.900000000000139 1.400000000000003 1.9999999999999956
    vertex 9.900000000000139 1.400000000000003 27.5
  endloop
endfacet
facet normal -1.0 0.0 0.0
  outer loop
    vertex 9.900000000000139 1.400000000000003 1.9999999999999956
    vertex 9.900000000000139 2.9000000000000004 27.5
    vertex 9.900000000000139 2.9000000000000004 1.9999999999999956
  endloop
endfacet
facet normal -1.3557531166095609e-16 4.832072633580818e-32 -1.0
  outer loop
    vertex 25.500000000000203 2.900000000000003 1.9999999999999936
    vertex 9.900000000000139 1.400000000000003 1.9999999999999956
    vertex 9.900000000000139 2.9000000000000004 1.9999999999999956
  endloop
endfacet
facet normal -1.3557531166095609e-16 4.832072633580818e-32 -1.0
  outer loop
    vertex 9.900000000000139 1.400000000000003 1.9999999999999956
    vertex 25.500000000000203 2.900000000000003 1.9999999999999936
    vertex 25.500000000000203 1.400000000000002 1.9999999999999936
  endloop
endfacet
endsolid Fan shed 01
