solid Fan shed 01
facet normal 1.0 0.0 0.0
  outer loop
    vertex 57.90000000000021 89.19999999999999 1.999999999999995
    vertex 57.90000000000021 87.69999999999999 27.5
    vertex 57.90000000000021 87.69999999999999 1.999999999999995
  endloop
endfacet
facet normal 1.0 0.0 0.0
  outer loop
    vertex 57.90000000000021 87.69999999999999 27.5
    vertex 57.90000000000021 89.19999999999999 1.999999999999995
    vertex 57.90000000000021 89.19999999999999 27.5
  endloop
endfacet
facet normal -7.952249071066496e-19 -1.0 -2.240023987065859e-16
  outer loop
    vertex 57.90000000000021 87.69999999999999 27.5
    vertex 35.40000000000014 87.7 1.999999999999995
    vertex 57.90000000000021 87.69999999999999 1.999999999999995
  endloop
endfacet
facet normal -7.952249071066496e-19 -1.0 -2.240023987065859e-16
  outer loop
    vertex 35.40000000000014 87.7 1.999999999999995
    vertex 57.90000000000021 87.69999999999999 27.5
    vertex 36.022065003403846 87.7 7.430668315376053
  endloop
endfacet
facet normal -7.952249071066496e-19 -1.0 -2.240023987065859e-16
  outer loop
    vertex 35.40000000000014 87.7 1.999999999999995
    vertex 36.022065003403846 87.7 7.430668315376053
    vertex 35.41247123255169 87.7 6.9390072925818975
  endloop
endfacet
facet normal -7.952249071066496e-19 -1.0 -2.240023987065859e-16
  outer loop
    vertex 36.022065003403846 87.7 7.430668315376053
    vertex 57.90000000000021 87.69999999999999 27.5
    vertex 36.48363613378119 87.7 8.063350872745032
  endloop
endfacet
facet normal -7.952249071066496e-19 -1.0 -2.240023987065859e-16
  outer loop
    vertex 36.48363613378119 87.7 8.063350872745032
    vertex 57.90000000000021 87.69999999999999 27.5
    vertex 36.76572931393087 87.7 8.793938693961497
  endloop
endfacet
facet normal -7.952249071066496e-19 -1.0 -2.240023987065859e-16
  outer loop
    vertex 36.76572931393087 87.7 8.793938693961497
    vertex 57.90000000000021 87.69999999999999 27.5
    vertex 36.849120359806655 87.7 9.572643426363012
  endloop
endfacet
facet normal -7.952249071066496e-19 -1.0 -2.240023987065859e-16
  outer loop
    vertex 36.849120359806655 87.7 9.572643426363012
    vertex 57.90000000000021 87.69999999999999 27.5
    vertex 36.72812630944236 87.7 10.346397629306825
  endloop
endfacet
facet normal -7.952249071066496e-19 -1.0 -2.240023987065859e-16
  outer loop
    vertex 36.72812630944236 87.7 10.346397629306825
    vertex 57.90000000000021 87.69999999999999 27.5
    vertex 36.41099270741818 87.7 11.062471232551594
  endloop
endfacet
facet normal -7.952249071066496e-19 -1.0 -2.240023987065859e-16
  outer loop
    vertex 36.41099270741818 87.7 11.062471232551594
    vertex 57.90000000000021 87.69999999999999 27.5
    vertex 35.91933168462402 87.7 11.672065003403773
  endloop
endfacet
facet normal -7.952249071066496e-19 -1.0 -2.240023987065859e-16
  outer loop
    vertex 35.91933168462402 87.7 11.672065003403773
    vertex 57.90000000000021 87.69999999999999 27.5
    vertex 35.28664912725505 87.7 12.133636133781117
  endloop
endfacet
facet normal -7.952249071066496e-19 -1.0 -2.240023987065859e-16
  outer loop
    vertex 35.28664912725505 87.7 12.133636133781117
    vertex 57.90000000000021 87.69999999999999 27.5
    vertex 34.55606130603858 87.7 12.415729313930775
  endloop
endfacet
facet normal -7.952249071066496e-19 -1.0 -2.240023987065859e-16
  outer loop
    vertex 34.55606130603858 87.7 12.415729313930775
    vertex 57.90000000000021 87.69999999999999 27.5
    vertex 33.77735657363708 87.7 12.499120359806566
  endloop
endfacet
facet normal -7.952249071066496e-19 -1.0 -2.240023987065859e-16
  outer loop
    vertex 32.41335087274511 87.7 6.8663638662188875
    vertex 9.900000000000139 87.69999999999999 1.999999999999995
    vertex 32.40000000000014 87.7 1.999999999999995
  endloop
endfacet
facet normal -7.952249071066496e-19 -1.0 -2.240023987065859e-16
  outer loop
    vertex 9.900000000000139 87.69999999999999 1.999999999999995
    vertex 32.41335087274511 87.7 6.8663638662188875
    vertex 31.78066831537615 87.7 7.327934996596233
  endloop
endfacet
facet normal -7.952249071066496e-19 -1.0 -2.240023987065859e-16
  outer loop
    vertex 9.900000000000139 87.69999999999999 1.999999999999995
    vertex 31.78066831537615 87.7 7.327934996596233
    vertex 9.900000000000139 87.69999999999999 27.5
  endloop
endfacet
facet normal -7.952249071066496e-19 -1.0 -2.240023987065859e-16
  outer loop
    vertex 9.900000000000139 87.69999999999999 27.5
    vertex 31.78066831537615 87.7 7.327934996596233
    vertex 31.289007292581985 87.7 7.93752876744841
  endloop
endfacet
facet normal -7.952249071066496e-19 -1.0 -2.240023987065859e-16
  outer loop
    vertex 9.900000000000139 87.69999999999999 27.5
    vertex 31.289007292581985 87.7 7.93752876744841
    vertex 30.971873690557807 87.7 8.653602370693179
  endloop
endfacet
facet normal -7.952249071066496e-19 -1.0 -2.240023987065859e-16
  outer loop
    vertex 9.900000000000139 87.69999999999999 27.5
    vertex 30.971873690557807 87.7 8.653602370693179
    vertex 30.850879640193515 87.7 9.427356573636994
  endloop
endfacet
facet normal -7.952249071066496e-19 -1.0 -2.240023987065859e-16
  outer loop
    vertex 9.900000000000139 87.69999999999999 27.5
    vertex 30.850879640193515 87.7 9.427356573636994
    vertex 30.9342706860693 87.7 10.206061306038505
  endloop
endfacet
facet normal -7.952249071066496e-19 -1.0 -2.240023987065859e-16
  outer loop
    vertex 9.900000000000139 87.69999999999999 27.5
    vertex 30.9342706860693 87.7 10.206061306038505
    vertex 31.21636386621898 87.7 10.936649127254972
  endloop
endfacet
facet normal -7.952249071066496e-19 -1.0 -2.240023987065859e-16
  outer loop
    vertex 9.900000000000139 87.69999999999999 27.5
    vertex 31.21636386621898 87.7 10.936649127254972
    vertex 31.677934996596324 87.7 11.56933168462395
  endloop
endfacet
facet normal -7.952249071066496e-19 -1.0 -2.240023987065859e-16
  outer loop
    vertex 9.900000000000139 87.69999999999999 27.5
    vertex 31.677934996596324 87.7 11.56933168462395
    vertex 32.287528767448485 87.7 12.060992707418107
  endloop
endfacet
facet normal -7.952249071066496e-19 -1.0 -2.240023987065859e-16
  outer loop
    vertex 9.900000000000139 87.69999999999999 27.5
    vertex 32.287528767448485 87.7 12.060992707418107
    vertex 33.00360237069326 87.7 12.378126309442274
  endloop
endfacet
facet normal -7.952249071066496e-19 -1.0 -2.240023987065859e-16
  outer loop
    vertex 9.900000000000139 87.69999999999999 27.5
    vertex 33.00360237069326 87.7 12.378126309442274
    vertex 33.77735657363708 87.7 12.499120359806566
  endloop
endfacet
facet normal -7.952249071066496e-19 -1.0 -2.240023987065859e-16
  outer loop
    vertex 9.900000000000139 87.69999999999999 27.5
    vertex 33.77735657363708 87.7 12.499120359806566
    vertex 57.90000000000021 87.69999999999999 27.5
  endloop
endfacet
facet normal 0.0 0.0 -1.0
  outer loop
    vertex 32.40000000000014 89.19999999999997 1.999999999999995
    vertex 9.900000000000139 87.69999999999999 1.999999999999995
    vertex 9.900000000000139 89.19999999999999 1.999999999999995
  endloop
endfacet
facet normal 0.0 0.0 -1.0
  outer loop
    vertex 9.900000000000139 87.69999999999999 1.999999999999995
    vertex 32.40000000000014 89.19999999999997 1.999999999999995
    vertex 32.40000000000014 87.7 1.999999999999995
  endloop
endfacet
facet normal 0.0 1.1102230246251563e-16 1.0
  outer loop
    vertex 57.90000000000021 87.69999999999999 27.5
    vertex 9.900000000000139 89.19999999999999 27.5
    vertex 9.900000000000139 87.69999999999999 27.5
  endloop
endfacet
facet normal 0.0 1.1102230246251563e-16 1.0
  outer loop
    vertex 9.900000000000139 89.19999999999999 27.5
    vertex 57.90000000000021 87.69999999999999 27.5
    vertex 57.90000000000021 89.19999999999999 27.5
  endloop
endfacet
facet normal -1.0 0.0 0.0
  outer loop
    vertex 9.900000000000139 89.19999999999999 27.5
    vertex 9.900000000000139 87.69999999999999 1.999999999999995
    vertex 9.900000000000139 87.69999999999999 27.5
  endloop
endfacet
facet normal -1.0 0.0 0.0
  outer loop
    vertex 9.900000000000139 87.69999999999999 1.999999999999995
    vertex 9.900000000000139 89.19999999999999 27.5
    vertex 9.900000000000139 89.19999999999999 1.999999999999995
  endloop
endfacet
facet normal -0.6277935669867712 0.0 0.7783798797823762
  outer loop
    vertex 36.022065003403846 87.7 7.430668315376053
    vertex 35.41247123255169 89.19999999999999 6.9390072925818975
    vertex 35.41247123255169 87.7 6.9390072925818975
  endloop
endfacet
facet normal -0.6277935669867712 0.0 0.7783798797823762
  outer loop
    vertex 35.41247123255169 89.19999999999999 6.9390072925818975
    vertex 36.022065003403846 87.7 7.430668315376053
    vertex 36.022065003403846 89.19999999999999 7.430668315376053
  endloop
endfacet
facet normal -0.8078615571429383 0.0 0.5893722970165692
  outer loop
    vertex 36.48363613378119 89.19999999999999 8.063350872745032
    vertex 36.022065003403846 87.7 7.430668315376053
    vertex 36.48363613378119 87.7 8.063350872745032
  endloop
endfacet
facet normal -0.8078615571429383 0.0 0.5893722970165692
  outer loop
    vertex 36.022065003403846 87.7 7.430668315376053
    vertex 36.48363613378119 89.19999999999999 8.063350872745032
    vertex 36.022065003403846 89.19999999999999 7.430668315376053
  endloop
endfacet
facet normal -0.9328751172341756 0.0 0.3601999661928402
  outer loop
    vertex 36.76572931393087 89.19999999999999 8.793938693961497
    vertex 36.48363613378119 87.7 8.063350872745032
    vertex 36.76572931393087 87.7 8.793938693961497
  endloop
endfacet
facet normal -0.9328751172341756 0.0 0.3601999661928402
  outer loop
    vertex 36.48363613378119 87.7 8.063350872745032
    vertex 36.76572931393087 89.19999999999999 8.793938693961497
    vertex 36.48363613378119 89.19999999999999 8.063350872745032
  endloop
endfacet
facet normal -0.9943147797349237 0.0 0.1064806029316627
  outer loop
    vertex 36.849120359806655 89.19999999999999 9.572643426363012
    vertex 36.76572931393087 87.7 8.793938693961497
    vertex 36.849120359806655 87.7 9.572643426363012
  endloop
endfacet
facet normal -0.9943147797349237 0.0 0.1064806029316627
  outer loop
    vertex 36.76572931393087 87.7 8.793938693961497
    vertex 36.849120359806655 89.19999999999999 9.572643426363012
    vertex 36.76572931393087 89.19999999999999 8.793938693961497
  endloop
endfacet
facet normal -0.987993533179602 -0.0 -0.15449523745179616
  outer loop
    vertex 36.72812630944236 89.19999999999999 10.346397629306825
    vertex 36.849120359806655 87.7 9.572643426363012
    vertex 36.72812630944236 87.7 10.346397629306825
  endloop
endfacet
facet normal -0.987993533179602 -0.0 -0.15449523745179616
  outer loop
    vertex 36.849120359806655 87.7 9.572643426363012
    vertex 36.72812630944236 89.19999999999999 10.346397629306825
    vertex 36.849120359806655 89.19999999999999 9.572643426363012
  endloop
endfacet
facet normal -0.9143421600746048 -0.0 -0.40494248271835587
  outer loop
    vertex 36.41099270741818 89.19999999999999 11.062471232551594
    vertex 36.72812630944236 87.7 10.346397629306825
    vertex 36.41099270741818 87.7 11.062471232551594
  endloop
endfacet
facet normal -0.9143421600746048 -0.0 -0.40494248271835587
  outer loop
    vertex 36.72812630944236 87.7 10.346397629306825
    vertex 36.41099270741818 89.19999999999999 11.062471232551594
    vertex 36.72812630944236 89.19999999999999 10.346397629306825
  endloop
endfacet
facet normal -0.7783798797823831 -0.0 -0.6277935669867629
  outer loop
    vertex 35.91933168462402 89.19999999999999 11.672065003403773
    vertex 36.41099270741818 87.7 11.062471232551594
    vertex 35.91933168462402 87.7 11.672065003403773
  endloop
endfacet
facet normal -0.7783798797823831 -0.0 -0.6277935669867629
  outer loop
    vertex 36.41099270741818 87.7 11.062471232551594
    vertex 35.91933168462402 89.19999999999999 11.672065003403773
    vertex 36.41099270741818 89.19999999999999 11.062471232551594
  endloop
endfacet
facet normal -0.5893722970165655 -0.0 -0.8078615571429411
  outer loop
    vertex 35.91933168462402 89.19999999999999 11.672065003403773
    vertex 35.28664912725505 87.7 12.133636133781117
    vertex 35.28664912725505 89.19999999999999 12.133636133781117
  endloop
endfacet
facet normal -0.5893722970165655 -0.0 -0.8078615571429411
  outer loop
    vertex 35.28664912725505 87.7 12.133636133781117
    vertex 35.91933168462402 89.19999999999999 11.672065003403773
    vertex 35.91933168462402 87.7 11.672065003403773
  endloop
endfacet
facet normal -0.3601999661928418 -0.0 -0.932875117234175
  outer loop
    vertex 35.28664912725505 89.19999999999999 12.133636133781117
    vertex 34.55606130603858 87.7 12.415729313930775
    vertex 34.55606130603858 89.19999999999999 12.415729313930775
  endloop
endfacet
facet normal -0.3601999661928418 -0.0 -0.932875117234175
  outer loop
    vertex 34.55606130603858 87.7 12.415729313930775
    vertex 35.28664912725505 89.19999999999999 12.133636133781117
    vertex 35.28664912725505 87.7 12.133636133781117
  endloop
endfacet
facet normal -0.10648060293166249 -0.0 -0.9943147797349235
  outer loop
    vertex 34.55606130603858 89.19999999999999 12.415729313930775
    vertex 33.77735657363708 87.7 12.499120359806566
    vertex 33.77735657363708 89.19999999999999 12.499120359806566
  endloop
endfacet
facet normal -0.10648060293166249 -0.0 -0.9943147797349235
  outer loop
    vertex 33.77735657363708 87.7 12.499120359806566
    vertex 34.55606130603858 89.19999999999999 12.415729313930775
    vertex 34.55606130603858 87.7 12.415729313930775
  endloop
endfacet
facet normal 0.1544952374517932 0.0 -0.9879935331796024
  outer loop
    vertex 33.77735657363708 89.19999999999999 12.499120359806566
    vertex 33.00360237069326 87.7 12.378126309442274
    vertex 33.00360237069326 89.19999999999999 12.378126309442274
  endloop
endfacet
facet normal 0.1544952374517932 0.0 -0.9879935331796024
  outer loop
    vertex 33.00360237069326 87.7 12.378126309442274
    vertex 33.77735657363708 89.19999999999999 12.499120359806566
    vertex 33.77735657363708 87.7 12.499120359806566
  endloop
endfacet
facet normal 0.4049424827183561 0.0 -0.9143421600746048
  outer loop
    vertex 33.00360237069326 89.19999999999999 12.378126309442274
    vertex 32.287528767448485 87.7 12.060992707418107
    vertex 32.287528767448485 89.19999999999999 12.060992707418107
  endloop
endfacet
facet normal 0.4049424827183561 0.0 -0.9143421600746048
  outer loop
    vertex 32.287528767448485 87.7 12.060992707418107
    vertex 33.00360237069326 89.19999999999999 12.378126309442274
    vertex 33.00360237069326 87.7 12.378126309442274
  endloop
endfacet
facet normal 0.6277935669867607 0.0 -0.7783798797823847
  outer loop
    vertex 32.287528767448485 89.19999999999999 12.060992707418107
    vertex 31.677934996596324 87.7 11.56933168462395
    vertex 31.677934996596324 89.19999999999999 11.56933168462395
  endloop
endfacet
facet normal 0.6277935669867607 0.0 -0.7783798797823847
  outer loop
    vertex 31.677934996596324 87.7 11.56933168462395
    vertex 32.287528767448485 89.19999999999999 12.060992707418107
    vertex 32.287528767448485 87.7 12.060992707418107
  endloop
endfacet
facet normal 0.8078615571429423 0.0 -0.5893722970165638
  outer loop
    vertex 31.21636386621898 89.19999999999999 10.936649127254972
    vertex 31.677934996596324 87.7 11.56933168462395
    vertex 31.21636386621898 87.7 10.936649127254972
  endloop
endfacet
facet normal 0.8078615571429423 0.0 -0.5893722970165638
  outer loop
    vertex 31.677934996596324 87.7 11.56933168462395
    vertex 31.21636386621898 89.19999999999999 10.936649127254972
    vertex 31.677934996596324 89.19999999999999 11.56933168462395
  endloop
endfacet
facet normal 0.9328751172341756 0.0 -0.3601999661928402
  outer loop
    vertex 30.9342706860693 89.19999999999999 10.206061306038505
    vertex 31.21636386621898 87.7 10.936649127254972
    vertex 30.9342706860693 87.7 10.206061306038505
  endloop
endfacet
facet normal 0.9328751172341756 0.0 -0.3601999661928402
  outer loop
    vertex 31.21636386621898 87.7 10.936649127254972
    vertex 30.9342706860693 89.19999999999999 10.206061306038505
    vertex 31.21636386621898 89.19999999999999 10.936649127254972
  endloop
endfacet
facet normal 0.9943147797349237 0.0 -0.1064806029316629
  outer loop
    vertex 30.850879640193515 89.19999999999999 9.427356573636994
    vertex 30.9342706860693 87.7 10.206061306038505
    vertex 30.850879640193515 87.7 9.427356573636994
  endloop
endfacet
facet normal 0.9943147797349237 0.0 -0.1064806029316629
  outer loop
    vertex 30.9342706860693 87.7 10.206061306038505
    vertex 30.850879640193515 89.19999999999999 9.427356573636994
    vertex 30.9342706860693 89.19999999999999 10.206061306038505
  endloop
endfacet
facet normal 0.9879935331796019 0.0 0.15449523745179586
  outer loop
    vertex 30.971873690557807 89.19999999999999 8.653602370693179
    vertex 30.850879640193515 87.7 9.427356573636994
    vertex 30.971873690557807 87.7 8.653602370693179
  endloop
endfacet
facet normal 0.9879935331796019 0.0 0.15449523745179586
  outer loop
    vertex 30.850879640193515 87.7 9.427356573636994
    vertex 30.971873690557807 89.19999999999999 8.653602370693179
    vertex 30.850879640193515 89.19999999999999 9.427356573636994
  endloop
endfacet
facet normal 0.9143421600746044 0.0 0.4049424827183565
  outer loop
    vertex 31.289007292581985 89.19999999999999 7.93752876744841
    vertex 30.971873690557807 87.7 8.653602370693179
    vertex 31.289007292581985 87.7 7.93752876744841
  endloop
endfacet
facet normal 0.9143421600746044 0.0 0.4049424827183565
  outer loop
    vertex 30.971873690557807 87.7 8.653602370693179
    vertex 31.289007292581985 89.19999999999999 7.93752876744841
    vertex 30.971873690557807 89.19999999999999 8.653602370693179
  endloop
endfacet
facet normal 0.7783798797823822 0.0 0.6277935669867638
  outer loop
    vertex 31.78066831537615 89.19999999999999 7.327934996596233
    vertex 31.289007292581985 87.7 7.93752876744841
    vertex 31.78066831537615 87.7 7.327934996596233
  endloop
endfacet
facet normal 0.7783798797823822 0.0 0.6277935669867638
  outer loop
    vertex 31.289007292581985 87.7 7.93752876744841
    vertex 31.78066831537615 89.19999999999999 7.327934996596233
    vertex 31.289007292581985 89.19999999999999 7.93752876744841
  endloop
endfacet
facet normal 0.5893722970165735 -6.094641771736876e-29 0.8078615571429352
  outer loop
    vertex 32.41335087274511 87.7 6.8663638662188875
    vertex 31.78066831537615 89.19999999999999 7.327934996596233
    vertex 31.78066831537615 87.7 7.327934996596233
  endloop
endfacet
facet normal 0.5893722970165735 -6.094641771736876e-29 0.8078615571429352
  outer loop
    vertex 31.78066831537615 89.19999999999999 7.327934996596233
    vertex 32.41335087274511 87.7 6.8663638662188875
    vertex 32.41335087274511 89.19999999999999 6.8663638662188875
  endloop
endfacet
facet normal 0.9999962366231588 -8.308966172528516e-20 -0.0027434903898748073
  outer loop
    vertex 32.40000000000014 89.19999999999997 1.999999999999995
    vertex 32.41335087274511 87.7 6.8663638662188875
    vertex 32.40000000000014 87.7 1.999999999999995
  endloop
endfacet
facet normal 0.9999962366231588 -8.308966172528516e-20 -0.0027434903898748073
  outer loop
    vertex 32.41335087274511 87.7 6.8663638662188875
    vertex 32.40000000000014 89.19999999999997 1.999999999999995
    vertex 32.41335087274511 89.19999999999999 6.8663638662188875
  endloop
endfacet
facet normal -0.9999968120804873 -6.860725111214665e-20 0.0025250403685356643
  outer loop
    vertex 35.41247123255169 89.19999999999999 6.9390072925818975
    vertex 35.40000000000014 87.7 1.999999999999995
    vertex 35.41247123255169 87.7 6.9390072925818975
  endloop
endfacet
facet normal -0.9999968120804873 -6.860725111214665e-20 0.0025250403685356643
  outer loop
    vertex 35.40000000000014 87.7 1.999999999999995
    vertex 35.41247123255169 89.19999999999999 6.9390072925818975
    vertex 35.40000000000014 89.19999999999997 1.999999999999995
  endloop
endfacet
facet normal 0.0 0.0 -1.0
  outer loop
    vertex 57.90000000000021 89.19999999999999 1.999999999999995
    vertex 35.40000000000014 87.7 1.999999999999995
    vertex 35.40000000000014 89.19999999999997 1.999999999999995
  endloop
endfacet
facet normal 0.0 0.0 -1.0
  outer loop
    vertex 35.40000000000014 87.7 1.999999999999995
    vertex 57.90000000000021 89.19999999999999 1.999999999999995
    vertex 57.90000000000021 87.69999999999999 1.999999999999995
  endloop
endfacet
facet normal 5.0418219241970495e-19 1.0 -1.9169643196236316e-16
  outer loop
    vertex 9.900000000000139 89.19999999999999 27.5
    vertex 32.40000000000014 89.19999999999997 1.999999999999995
    vertex 9.900000000000139 89.19999999999999 1.999999999999995
  endloop
endfacet
facet normal 5.0418219241970495e-19 1.0 -1.9169643196236316e-16
  outer loop
    vertex 32.40000000000014 89.19999999999997 1.999999999999995
    vertex 9.900000000000139 89.19999999999999 27.5
    vertex 31.78066831537615 89.19999999999999 7.327934996596233
  endloop
endfacet
facet normal 5.0418219241970495e-19 1.0 -1.9169643196236316e-16
  outer loop
    vertex 32.40000000000014 89.19999999999997 1.999999999999995
    vertex 31.78066831537615 89.19999999999999 7.327934996596233
    vertex 32.41335087274511 89.19999999999999 6.8663638662188875
  endloop
endfacet
facet normal 5.0418219241970495e-19 1.0 -1.9169643196236316e-16
  outer loop
    vertex 31.78066831537615 89.19999999999999 7.327934996596233
    vertex 9.900000000000139 89.19999999999999 27.5
    vertex 31.289007292581985 89.19999999999999 7.93752876744841
  endloop
endfacet
facet normal 5.0418219241970495e-19 1.0 -1.9169643196236316e-16
  outer loop
    vertex 31.289007292581985 89.19999999999999 7.93752876744841
    vertex 9.900000000000139 89.19999999999999 27.5
    vertex 30.971873690557807 89.19999999999999 8.653602370693179
  endloop
endfacet
facet normal 5.0418219241970495e-19 1.0 -1.9169643196236316e-16
  outer loop
    vertex 30.971873690557807 89.19999999999999 8.653602370693179
    vertex 9.900000000000139 89.19999999999999 27.5
    vertex 30.850879640193515 89.19999999999999 9.427356573636994
  endloop
endfacet
facet normal 5.0418219241970495e-19 1.0 -1.9169643196236316e-16
  outer loop
    vertex 30.850879640193515 89.19999999999999 9.427356573636994
    vertex 9.900000000000139 89.19999999999999 27.5
    vertex 30.9342706860693 89.19999999999999 10.206061306038505
  endloop
endfacet
facet normal 5.0418219241970495e-19 1.0 -1.9169643196236316e-16
  outer loop
    vertex 30.9342706860693 89.19999999999999 10.206061306038505
    vertex 9.900000000000139 89.19999999999999 27.5
    vertex 31.21636386621898 89.19999999999999 10.936649127254972
  endloop
endfacet
facet normal 5.0418219241970495e-19 1.0 -1.9169643196236316e-16
  outer loop
    vertex 31.21636386621898 89.19999999999999 10.936649127254972
    vertex 9.900000000000139 89.19999999999999 27.5
    vertex 31.677934996596324 89.19999999999999 11.56933168462395
  endloop
endfacet
facet normal 5.0418219241970495e-19 1.0 -1.9169643196236316e-16
  outer loop
    vertex 31.677934996596324 89.19999999999999 11.56933168462395
    vertex 9.900000000000139 89.19999999999999 27.5
    vertex 32.287528767448485 89.19999999999999 12.060992707418107
  endloop
endfacet
facet normal 5.0418219241970495e-19 1.0 -1.9169643196236316e-16
  outer loop
    vertex 32.287528767448485 89.19999999999999 12.060992707418107
    vertex 9.900000000000139 89.19999999999999 27.5
    vertex 33.00360237069326 89.19999999999999 12.378126309442274
  endloop
endfacet
facet normal 5.0418219241970495e-19 1.0 -1.9169643196236316e-16
  outer loop
    vertex 33.00360237069326 89.19999999999999 12.378126309442274
    vertex 9.900000000000139 89.19999999999999 27.5
    vertex 33.77735657363708 89.19999999999999 12.499120359806566
  endloop
endfacet
facet normal 5.0418219241970495e-19 1.0 -1.9169643196236316e-16
  outer loop
    vertex 35.41247123255169 89.19999999999999 6.9390072925818975
    vertex 57.90000000000021 89.19999999999999 1.999999999999995
    vertex 35.40000000000014 89.19999999999997 1.999999999999995
  endloop
endfacet
facet normal 5.0418219241970495e-19 1.0 -1.9169643196236316e-16
  outer loop
    vertex 57.90000000000021 89.19999999999999 1.999999999999995
    vertex 35.41247123255169 89.19999999999999 6.9390072925818975
    vertex 36.022065003403846 89.19999999999999 7.430668315376053
  endloop
endfacet
facet normal 5.0418219241970495e-19 1.0 -1.9169643196236316e-16
  outer loop
    vertex 57.90000000000021 89.19999999999999 1.999999999999995
    vertex 36.022065003403846 89.19999999999999 7.430668315376053
    vertex 57.90000000000021 89.19999999999999 27.5
  endloop
endfacet
facet normal 5.0418219241970495e-19 1.0 -1.9169643196236316e-16
  outer loop
    vertex 57.90000000000021 89.19999999999999 27.5
    vertex 36.022065003403846 89.19999999999999 7.430668315376053
    vertex 36.48363613378119 89.19999999999999 8.063350872745032
  endloop
endfacet
facet normal 5.0418219241970495e-19 1.0 -1.9169643196236316e-16
  outer loop
    vertex 57.90000000000021 89.19999999999999 27.5
    vertex 36.48363613378119 89.19999999999999 8.063350872745032
    vertex 36.76572931393087 89.19999999999999 8.793938693961497
  endloop
endfacet
facet normal 5.0418219241970495e-19 1.0 -1.9169643196236316e-16
  outer loop
    vertex 57.90000000000021 89.19999999999999 27.5
    vertex 36.76572931393087 89.19999999999999 8.793938693961497
    vertex 36.849120359806655 89.19999999999999 9.572643426363012
  endloop
endfacet
facet normal 5.0418219241970495e-19 1.0 -1.9169643196236316e-16
  outer loop
    vertex 57.90000000000021 89.19999999999999 27.5
    vertex 36.849120359806655 89.19999999999999 9.572643426363012
    vertex 36.72812630944236 89.19999999999999 10.346397629306825
  endloop
endfacet
facet normal 5.0418219241970495e-19 1.0 -1.9169643196236316e-16
  outer loop
    vertex 57.90000000000021 89.19999999999999 27.5
    vertex 36.72812630944236 89.19999999999999 10.346397629306825
    vertex 36.41099270741818 89.19999999999999 11.062471232551594
  endloop
endfacet
facet normal 5.0418219241970495e-19 1.0 -1.9169643196236316e-16
  outer loop
    vertex 57.90000000000021 89.19999999999999 27.5
    vertex 36.41099270741818 89.19999999999999 11.062471232551594
    vertex 35.91933168462402 89.19999999999999 11.672065003403773
  endloop
endfacet
facet normal 5.0418219241970495e-19 1.0 -1.9169643196236316e-16
  outer loop
    vertex 57.90000000000021 89.19999999999999 27.5
    vertex 35.91933168462402 89.19999999999999 11.672065003403773
    vertex 35.28664912725505 89.19999999999999 12.133636133781117
  endloop
endfacet
facet normal 5.0418219241970495e-19 1.0 -1.9169643196236316e-16
  outer loop
    vertex 57.90000000000021 89.19999999999999 27.5
    vertex 35.28664912725505 89.19999999999999 12.133636133781117
    vertex 34.55606130603858 89.19999999999999 12.415729313930775
  endloop
endfacet
facet normal 5.0418219241970495e-19 1.0 -1.9169643196236316e-16
  outer loop
    vertex 57.90000000000021 89.19999999999999 27.5
    vertex 34.55606130603858 89.19999999999999 12.415729313930775
    vertex 33.77735657363708 89.19999999999999 12.499120359806566
  endloop
endfacet
facet normal 5.0418219241970495e-19 1.0 -1.9169643196236316e-16
  outer loop
    vertex 57.90000000000021 89.19999999999999 27.5
    vertex 33.77735657363708 89.19999999999999 12.499120359806566
    vertex 9.900000000000139 89.19999999999999 27.5
  endloop
endfacet
endsolid Fan shed 01
