solid Fan shed 03
facet normal 0.0 0.0 -1.0
  outer loop
    vertex 374.09908452102167 -77.09760290856171 -32.49999999999999
    vertex 376.2866489557235 -78.89760290856171 -32.49999999999999
    vertex 374.09908452102167 -82.09760290856171 -32.49999999999999
  endloop
endfacet
facet normal 0.0 0.0 -1.0
  outer loop
    vertex 376.2866489557235 -78.89760290856171 -32.49999999999999
    vertex 374.09908452102167 -77.09760290856171 -32.49999999999999
    vertex 376.50913502736057 -78.60765341490055 -32.49999999999999
  endloop
endfacet
facet normal 0.0 0.0 -1.0
  outer loop
    vertex 376.50913502736057 -78.60765341490055 -32.49999999999999
    vertex 374.09908452102167 -77.09760290856171 -32.49999999999999
    vertex 376.7990845210217 -78.3851673432635 -32.49999999999999
  endloop
endfacet
facet normal 0.0 0.0 -1.0
  outer loop
    vertex 376.7990845210217 -78.3851673432635 -32.49999999999999
    vertex 374.09908452102167 -77.09760290856171 -32.49999999999999
    vertex 377.1367378578782 -78.24530675175703 -32.49999999999999
  endloop
endfacet
facet normal 0.0 0.0 -1.0
  outer loop
    vertex 377.1367378578782 -78.24530675175703 -32.49999999999999
    vertex 374.09908452102167 -77.09760290856171 -32.49999999999999
    vertex 377.4990845210217 -78.1976029085617 -32.49999999999999
  endloop
endfacet
facet normal 0.0 0.0 -1.0
  outer loop
    vertex 377.4990845210217 -78.1976029085617 -32.49999999999999
    vertex 374.09908452102167 -77.09760290856171 -32.49999999999999
    vertex 406.0990845210217 -77.09760290856171 -32.49999999999999
  endloop
endfacet
facet normal 0.0 0.0 -1.0
  outer loop
    vertex 374.09908452102167 -82.09760290856171 -32.49999999999999
    vertex 376.2866489557235 -78.89760290856171 -32.49999999999999
    vertex 376.146788364217 -79.23525624541817 -32.49999999999999
  endloop
endfacet
facet normal 0.0 0.0 -1.0
  outer loop
    vertex 374.09908452102167 -82.09760290856171 -32.49999999999999
    vertex 376.146788364217 -79.23525624541817 -32.49999999999999
    vertex 376.09908452102167 -79.5976029085617 -32.49999999999999
  endloop
endfacet
facet normal 0.0 0.0 -1.0
  outer loop
    vertex 377.4990845210217 -78.1976029085617 -32.49999999999999
    vertex 406.0990845210217 -77.09760290856171 -32.49999999999999
    vertex 377.8614311841652 -78.24530675175703 -32.49999999999999
  endloop
endfacet
facet normal 0.0 0.0 -1.0
  outer loop
    vertex 377.8614311841652 -78.24530675175703 -32.49999999999999
    vertex 406.0990845210217 -77.09760290856171 -32.49999999999999
    vertex 378.1990845210217 -78.3851673432635 -32.49999999999999
  endloop
endfacet
facet normal 0.0 0.0 -1.0
  outer loop
    vertex 378.1990845210217 -78.3851673432635 -32.49999999999999
    vertex 406.0990845210217 -77.09760290856171 -32.49999999999999
    vertex 378.48903401468283 -78.60765341490055 -32.49999999999999
  endloop
endfacet
facet normal 0.0 0.0 -1.0
  outer loop
    vertex 378.48903401468283 -78.60765341490055 -32.49999999999999
    vertex 406.0990845210217 -77.09760290856171 -32.49999999999999
    vertex 378.7115200863199 -78.89760290856171 -32.49999999999999
  endloop
endfacet
facet normal 0.0 0.0 -1.0
  outer loop
    vertex 378.7115200863199 -78.89760290856171 -32.49999999999999
    vertex 406.0990845210217 -77.09760290856171 -32.49999999999999
    vertex 378.85138067782634 -79.23525624541817 -32.49999999999999
  endloop
endfacet
facet normal 0.0 0.0 -1.0
  outer loop
    vertex 378.85138067782634 -79.23525624541817 -32.49999999999999
    vertex 406.0990845210217 -77.09760290856171 -32.49999999999999
    vertex 378.8990845210217 -79.5976029085617 -32.49999999999999
  endloop
endfacet
facet normal 0.0 0.0 -1.0
  outer loop
    vertex 378.8990845210217 -79.5976029085617 -32.49999999999999
    vertex 406.0990845210217 -77.09760290856171 -32.49999999999999
    vertex 402.18018124333986 -78.29731855950145 -32.49999999999999
  endloop
endfacet
facet normal 0.0 0.0 -1.0
  outer loop
    vertex 378.8990845210217 -79.5976029085617 -32.49999999999999
    vertex 402.18018124333986 -78.29731855950145 -32.49999999999999
    vertex 401.8613240901772 -78.47592672511513 -32.49999999999999
  endloop
endfacet
facet normal 0.0 0.0 -1.0
  outer loop
    vertex 378.8990845210217 -79.5976029085617 -32.49999999999999
    vertex 401.8613240901772 -78.47592672511513 -32.49999999999999
    vertex 401.59955892591205 -78.73097526897313 -32.49999999999999
  endloop
endfacet
facet normal 0.0 0.0 -1.0
  outer loop
    vertex 378.8990845210217 -79.5976029085617 -32.49999999999999
    vertex 401.59955892591205 -78.73097526897313 -32.49999999999999
    vertex 401.4127246139017 -79.04508305429923 -32.49999999999999
  endloop
endfacet
facet normal 0.0 0.0 -1.0
  outer loop
    vertex 378.8990845210217 -79.5976029085617 -32.49999999999999
    vertex 401.4127246139017 -79.04508305429923 -32.49999999999999
    vertex 401.31355360375125 -79.39684415461106 -32.49999999999999
  endloop
endfacet
facet normal 0.0 0.0 -1.0
  outer loop
    vertex 378.8990845210217 -79.5976029085617 -32.49999999999999
    vertex 401.31355360375125 -79.39684415461106 -32.49999999999999
    vertex 401.30880423591475 -79.76228663223512 -32.49999999999999
  endloop
endfacet
facet normal 0.0 0.0 -1.0
  outer loop
    vertex 402.18018124333986 -78.29731855950145 -32.49999999999999
    vertex 406.0990845210217 -77.09760290856171 -32.49999999999999
    vertex 402.5344007973483 -78.20732262345476 -32.49999999999999
  endloop
endfacet
facet normal 0.0 0.0 -1.0
  outer loop
    vertex 402.5344007973483 -78.20732262345476 -32.49999999999999
    vertex 406.0990845210217 -77.09760290856171 -32.49999999999999
    vertex 402.89984327497234 -78.2120719912913 -32.49999999999999
  endloop
endfacet
facet normal 0.0 0.0 -1.0
  outer loop
    vertex 402.89984327497234 -78.2120719912913 -32.49999999999999
    vertex 406.0990845210217 -77.09760290856171 -32.49999999999999
    vertex 403.25160437528416 -78.31124300144171 -32.49999999999999
  endloop
endfacet
facet normal 0.0 0.0 -1.0
  outer loop
    vertex 403.25160437528416 -78.31124300144171 -32.49999999999999
    vertex 406.0990845210217 -77.09760290856171 -32.49999999999999
    vertex 403.56571216061025 -78.4980773134521 -32.49999999999999
  endloop
endfacet
facet normal 0.0 0.0 -1.0
  outer loop
    vertex 403.56571216061025 -78.4980773134521 -32.49999999999999
    vertex 406.0990845210217 -77.09760290856171 -32.49999999999999
    vertex 403.8207607044683 -78.75984247771724 -32.49999999999999
  endloop
endfacet
facet normal 0.0 0.0 -1.0
  outer loop
    vertex 403.8207607044683 -78.75984247771724 -32.49999999999999
    vertex 406.0990845210217 -77.09760290856171 -32.49999999999999
    vertex 403.999368870082 -79.07869963087988 -32.49999999999999
  endloop
endfacet
facet normal 0.0 0.0 -1.0
  outer loop
    vertex 403.999368870082 -79.07869963087988 -32.49999999999999
    vertex 406.0990845210217 -77.09760290856171 -32.49999999999999
    vertex 404.08936480612863 -79.4329191848883 -32.49999999999999
  endloop
endfacet
facet normal 0.0 0.0 -1.0
  outer loop
    vertex 374.09908452102167 -82.09760290856171 -32.49999999999999
    vertex 377.4990845210217 -80.9976029085617 -32.49999999999999
    vertex 406.0990845210217 -82.09760290856171 -32.49999999999999
  endloop
endfacet
facet normal 0.0 0.0 -1.0
  outer loop
    vertex 377.4990845210217 -80.9976029085617 -32.49999999999999
    vertex 374.09908452102167 -82.09760290856171 -32.49999999999999
    vertex 377.1367378578782 -80.94989906536641 -32.49999999999999
  endloop
endfacet
facet normal 0.0 0.0 -1.0
  outer loop
    vertex 377.1367378578782 -80.94989906536641 -32.49999999999999
    vertex 374.09908452102167 -82.09760290856171 -32.49999999999999
    vertex 376.7990845210217 -80.81003847385992 -32.49999999999999
  endloop
endfacet
facet normal 0.0 0.0 -1.0
  outer loop
    vertex 376.7990845210217 -80.81003847385992 -32.49999999999999
    vertex 374.09908452102167 -82.09760290856171 -32.49999999999999
    vertex 376.50913502736057 -80.58755240222288 -32.49999999999999
  endloop
endfacet
facet normal 0.0 0.0 -1.0
  outer loop
    vertex 376.50913502736057 -80.58755240222288 -32.49999999999999
    vertex 374.09908452102167 -82.09760290856171 -32.49999999999999
    vertex 376.2866489557235 -80.2976029085617 -32.49999999999999
  endloop
endfacet
facet normal 0.0 0.0 -1.0
  outer loop
    vertex 376.2866489557235 -80.2976029085617 -32.49999999999999
    vertex 374.09908452102167 -82.09760290856171 -32.49999999999999
    vertex 376.146788364217 -79.95994957170524 -32.49999999999999
  endloop
endfacet
facet normal 0.0 0.0 -1.0
  outer loop
    vertex 376.146788364217 -79.95994957170524 -32.49999999999999
    vertex 374.09908452102167 -82.09760290856171 -32.49999999999999
    vertex 376.09908452102167 -79.5976029085617 -32.49999999999999
  endloop
endfacet
facet normal 0.0 0.0 -1.0
  outer loop
    vertex 406.0990845210217 -82.09760290856171 -32.49999999999999
    vertex 377.4990845210217 -80.9976029085617 -32.49999999999999
    vertex 377.8614311841652 -80.94989906536641 -32.49999999999999
  endloop
endfacet
facet normal 0.0 0.0 -1.0
  outer loop
    vertex 406.0990845210217 -82.09760290856171 -32.49999999999999
    vertex 377.8614311841652 -80.94989906536641 -32.49999999999999
    vertex 378.1990845210217 -80.81003847385992 -32.49999999999999
  endloop
endfacet
facet normal 0.0 0.0 -1.0
  outer loop
    vertex 406.0990845210217 -82.09760290856171 -32.49999999999999
    vertex 378.1990845210217 -80.81003847385992 -32.49999999999999
    vertex 378.48903401468283 -80.58755240222288 -32.49999999999999
  endloop
endfacet
facet normal 0.0 0.0 -1.0
  outer loop
    vertex 406.0990845210217 -82.09760290856171 -32.49999999999999
    vertex 378.48903401468283 -80.58755240222288 -32.49999999999999
    vertex 378.7115200863199 -80.2976029085617 -32.49999999999999
  endloop
endfacet
facet normal 0.0 0.0 -1.0
  outer loop
    vertex 406.0990845210217 -82.09760290856171 -32.49999999999999
    vertex 378.7115200863199 -80.2976029085617 -32.49999999999999
    vertex 378.85138067782634 -79.95994957170522 -32.49999999999999
  endloop
endfacet
facet normal 0.0 0.0 -1.0
  outer loop
    vertex 406.0990845210217 -82.09760290856171 -32.49999999999999
    vertex 378.85138067782634 -79.95994957170522 -32.49999999999999
    vertex 378.8990845210217 -79.5976029085617 -32.49999999999999
  endloop
endfacet
facet normal 0.0 0.0 -1.0
  outer loop
    vertex 406.0990845210217 -82.09760290856171 -32.49999999999999
    vertex 378.8990845210217 -79.5976029085617 -32.49999999999999
    vertex 402.1465646667592 -80.88396281568171 -32.49999999999999
  endloop
endfacet
facet normal 0.0 0.0 -1.0
  outer loop
    vertex 402.1465646667592 -80.88396281568171 -32.49999999999999
    vertex 378.8990845210217 -79.5976029085617 -32.49999999999999
    vertex 401.83245688143313 -80.69712850367132 -32.49999999999999
  endloop
endfacet
facet normal 0.0 0.0 -1.0
  outer loop
    vertex 401.83245688143313 -80.69712850367132 -32.49999999999999
    vertex 378.8990845210217 -79.5976029085617 -32.49999999999999
    vertex 401.5774083375751 -80.43536333940618 -32.49999999999999
  endloop
endfacet
facet normal 0.0 0.0 -1.0
  outer loop
    vertex 401.5774083375751 -80.43536333940618 -32.49999999999999
    vertex 378.8990845210217 -79.5976029085617 -32.49999999999999
    vertex 401.39880017196145 -80.11650618624356 -32.49999999999999
  endloop
endfacet
facet normal 0.0 0.0 -1.0
  outer loop
    vertex 401.39880017196145 -80.11650618624356 -32.49999999999999
    vertex 378.8990845210217 -79.5976029085617 -32.49999999999999
    vertex 401.30880423591475 -79.76228663223512 -32.49999999999999
  endloop
endfacet
facet normal 0.0 0.0 -1.0
  outer loop
    vertex 406.0990845210217 -82.09760290856171 -32.49999999999999
    vertex 402.1465646667592 -80.88396281568171 -32.49999999999999
    vertex 402.49832576707104 -80.98313382583213 -32.49999999999999
  endloop
endfacet
facet normal 0.0 0.0 -1.0
  outer loop
    vertex 406.0990845210217 -82.09760290856171 -32.49999999999999
    vertex 402.49832576707104 -80.98313382583213 -32.49999999999999
    vertex 402.8637682446951 -80.98788319366867 -32.49999999999999
  endloop
endfacet
facet normal 0.0 0.0 -1.0
  outer loop
    vertex 406.0990845210217 -82.09760290856171 -32.49999999999999
    vertex 402.8637682446951 -80.98788319366867 -32.49999999999999
    vertex 403.2179877987036 -80.89788725762196 -32.49999999999999
  endloop
endfacet
facet normal 0.0 0.0 -1.0
  outer loop
    vertex 406.0990845210217 -82.09760290856171 -32.49999999999999
    vertex 403.2179877987036 -80.89788725762196 -32.49999999999999
    vertex 403.53684495186616 -80.7192790920083 -32.49999999999999
  endloop
endfacet
facet normal 0.0 0.0 -1.0
  outer loop
    vertex 406.0990845210217 -82.09760290856171 -32.49999999999999
    vertex 403.53684495186616 -80.7192790920083 -32.49999999999999
    vertex 403.79861011613133 -80.46423054815028 -32.49999999999999
  endloop
endfacet
facet normal 0.0 0.0 -1.0
  outer loop
    vertex 406.0990845210217 -82.09760290856171 -32.49999999999999
    vertex 403.79861011613133 -80.46423054815028 -32.49999999999999
    vertex 403.9854444281417 -80.1501227628242 -32.49999999999999
  endloop
endfacet
facet normal 0.0 0.0 -1.0
  outer loop
    vertex 406.0990845210217 -82.09760290856171 -32.49999999999999
    vertex 403.9854444281417 -80.1501227628242 -32.49999999999999
    vertex 404.08461543829213 -79.79836166251235 -32.49999999999999
  endloop
endfacet
facet normal 0.0 0.0 -1.0
  outer loop
    vertex 406.0990845210217 -82.09760290856171 -32.49999999999999
    vertex 404.08461543829213 -79.79836166251235 -32.49999999999999
    vertex 404.08936480612863 -79.4329191848883 -32.49999999999999
  endloop
endfacet
facet normal 0.0 0.0 -1.0
  outer loop
    vertex 406.0990845210217 -82.09760290856171 -32.49999999999999
    vertex 404.08936480612863 -79.4329191848883 -32.49999999999999
    vertex 406.0990845210217 -77.09760290856171 -32.49999999999999
  endloop
endfacet
facet normal -1.0 0.0 0.0
  outer loop
    vertex 374.09908452102167 -77.09760290856171 -17.49999999999999
    vertex 374.09908452102167 -82.09760290856171 -32.49999999999999
    vertex 374.09908452102167 -82.09760290856171 -17.49999999999999
  endloop
endfacet
facet normal -1.0 0.0 0.0
  outer loop
    vertex 374.09908452102167 -82.09760290856171 -32.49999999999999
    vertex 374.09908452102167 -77.09760290856171 -17.49999999999999
    vertex 374.09908452102167 -77.09760290856171 -32.49999999999999
  endloop
endfacet
facet normal 1.0 0.0 0.0
  outer loop
    vertex 406.0990845210217 -77.09760290856171 -32.49999999999999
    vertex 406.0990845210217 -82.09760290856171 -17.49999999999999
    vertex 406.0990845210217 -82.09760290856171 -32.49999999999999
  endloop
endfacet
facet normal 1.0 0.0 0.0
  outer loop
    vertex 406.0990845210217 -82.09760290856171 -17.49999999999999
    vertex 406.0990845210217 -77.09760290856171 -32.49999999999999
    vertex 406.0990845210217 -77.09760290856171 -17.49999999999999
  endloop
endfacet
facet normal 0.0 -1.0 0.0
  outer loop
    vertex 399.0990845210217 -82.09760290856171 -8.49999999999999
    vertex 381.09908452102167 -82.09760290856171 -17.49999999999999
    vertex 399.0990845210217 -82.09760290856171 -17.49999999999999
  endloop
endfacet
facet normal 0.0 -1.0 0.0
  outer loop
    vertex 381.09908452102167 -82.09760290856171 -17.49999999999999
    vertex 399.0990845210217 -82.09760290856171 -8.49999999999999
    vertex 381.09908452102167 -82.09760290856171 -8.49999999999999
  endloop
endfacet
facet normal 0.0 -1.0 0.0
  outer loop
    vertex 406.0990845210217 -82.09760290856171 -17.49999999999999
    vertex 374.09908452102167 -82.09760290856171 -32.49999999999999
    vertex 406.0990845210217 -82.09760290856171 -32.49999999999999
  endloop
endfacet
facet normal 0.0 -1.0 0.0
  outer loop
    vertex 374.09908452102167 -82.09760290856171 -32.49999999999999
    vertex 406.0990845210217 -82.09760290856171 -17.49999999999999
    vertex 374.09908452102167 -82.09760290856171 -17.49999999999999
  endloop
endfacet
facet normal 0.0 -1.0 0.0
  outer loop
    vertex 374.09908452102167 -82.09760290856171 -17.49999999999999
    vertex 406.0990845210217 -82.09760290856171 -17.49999999999999
    vertex 399.0990845210217 -82.09760290856171 -17.49999999999999
  endloop
endfacet
facet normal 0.0 -1.0 0.0
  outer loop
    vertex 374.09908452102167 -82.09760290856171 -17.49999999999999
    vertex 399.0990845210217 -82.09760290856171 -17.49999999999999
    vertex 381.09908452102167 -82.09760290856171 -17.49999999999999
  endloop
endfacet
facet normal -0.6978581395372945 0.7162360065519927 -8.879224236213451e-31
  outer loop
    vertex 403.53684495186616 -80.7192790920083 -17.49999999999999
    vertex 403.79861011613133 -80.46423054815028 -32.49999999999999
    vertex 403.53684495186616 -80.7192790920083 -32.49999999999999
  endloop
endfacet
facet normal -0.6978581395372945 0.7162360065519927 -8.879224236213451e-31
  outer loop
    vertex 403.79861011613133 -80.46423054815028 -32.49999999999999
    vertex 403.53684495186616 -80.7192790920083 -17.49999999999999
    vertex 403.79861011613133 -80.46423054815028 -17.49999999999999
  endloop
endfacet
facet normal -0.8594547193489709 0.5112118791546043 1.3163436471972913e-18
  outer loop
    vertex 403.9854444281417 -80.1501227628242 -17.49999999999999
    vertex 403.79861011613133 -80.46423054815028 -32.49999999999999
    vertex 403.79861011613133 -80.46423054815028 -17.49999999999999
  endloop
endfacet
facet normal -0.8594547193489709 0.5112118791546043 1.3163436471972913e-18
  outer loop
    vertex 403.79861011613133 -80.46423054815028 -32.49999999999999
    vertex 403.9854444281417 -80.1501227628242 -17.49999999999999
    vertex 403.9854444281417 -80.1501227628242 -32.49999999999999
  endloop
endfacet
facet normal -0.9624808803530484 0.27134950701046234 -8.631314097480371e-32
  outer loop
    vertex 404.08461543829213 -79.79836166251235 -17.49999999999999
    vertex 403.9854444281417 -80.1501227628242 -32.49999999999999
    vertex 403.9854444281417 -80.1501227628242 -17.49999999999999
  endloop
endfacet
facet normal -0.9624808803530484 0.27134950701046234 -8.631314097480371e-32
  outer loop
    vertex 403.9854444281417 -80.1501227628242 -32.49999999999999
    vertex 404.08461543829213 -79.79836166251235 -17.49999999999999
    vertex 404.08461543829213 -79.79836166251235 -32.49999999999999
  endloop
endfacet
facet normal -0.9999155599359361 0.012995114389788585 1.8179745902512414e-20
  outer loop
    vertex 404.08936480612863 -79.4329191848883 -17.49999999999999
    vertex 404.08461543829213 -79.79836166251235 -32.49999999999999
    vertex 404.08461543829213 -79.79836166251235 -17.49999999999999
  endloop
endfacet
facet normal -0.9999155599359361 0.012995114389788585 1.8179745902512414e-20
  outer loop
    vertex 404.08461543829213 -79.79836166251235 -32.49999999999999
    vertex 404.08936480612863 -79.4329191848883 -17.49999999999999
    vertex 404.08936480612863 -79.4329191848883 -32.49999999999999
  endloop
endfacet
facet normal -0.9692076465477728 -0.246244873801116 6.834611958279694e-19
  outer loop
    vertex 403.999368870082 -79.07869963087988 -17.49999999999999
    vertex 404.08936480612863 -79.4329191848883 -32.49999999999999
    vertex 404.08936480612863 -79.4329191848883 -17.49999999999999
  endloop
endfacet
facet normal -0.9692076465477728 -0.246244873801116 6.834611958279694e-19
  outer loop
    vertex 404.08936480612863 -79.4329191848883 -32.49999999999999
    vertex 403.999368870082 -79.07869963087988 -17.49999999999999
    vertex 403.999368870082 -79.07869963087988 -32.49999999999999
  endloop
endfacet
facet normal -0.8724498337387767 -0.48870368078128995 -1.1100648211612282e-30
  outer loop
    vertex 403.8207607044683 -78.75984247771724 -17.49999999999999
    vertex 403.999368870082 -79.07869963087988 -32.49999999999999
    vertex 403.999368870082 -79.07869963087988 -17.49999999999999
  endloop
endfacet
facet normal -0.8724498337387767 -0.48870368078128995 -1.1100648211612282e-30
  outer loop
    vertex 403.999368870082 -79.07869963087988 -32.49999999999999
    vertex 403.8207607044683 -78.75984247771724 -17.49999999999999
    vertex 403.8207607044683 -78.75984247771724 -32.49999999999999
  endloop
endfacet
facet normal -0.7162360065519473 -0.6978581395373411 0.0
  outer loop
    vertex 403.56571216061025 -78.4980773134521 -17.49999999999999
    vertex 403.8207607044683 -78.75984247771724 -32.49999999999999
    vertex 403.8207607044683 -78.75984247771724 -17.49999999999999
  endloop
endfacet
facet normal -0.7162360065519473 -0.6978581395373411 0.0
  outer loop
    vertex 403.8207607044683 -78.75984247771724 -32.49999999999999
    vertex 403.56571216061025 -78.4980773134521 -17.49999999999999
    vertex 403.56571216061025 -78.4980773134521 -32.49999999999999
  endloop
endfacet
facet normal -0.511211879154609 -0.859454719348968 -6.011747162743866e-19
  outer loop
    vertex 403.56571216061025 -78.4980773134521 -17.49999999999999
    vertex 403.25160437528416 -78.31124300144171 -32.49999999999999
    vertex 403.56571216061025 -78.4980773134521 -32.49999999999999
  endloop
endfacet
facet normal -0.511211879154609 -0.859454719348968 -6.011747162743866e-19
  outer loop
    vertex 403.25160437528416 -78.31124300144171 -32.49999999999999
    vertex 403.56571216061025 -78.4980773134521 -17.49999999999999
    vertex 403.25160437528416 -78.31124300144171 -17.49999999999999
  endloop
endfacet
facet normal -0.27134950701046023 -0.9624808803530491 3.061540403250588e-31
  outer loop
    vertex 403.25160437528416 -78.31124300144171 -17.49999999999999
    vertex 402.89984327497234 -78.2120719912913 -32.49999999999999
    vertex 403.25160437528416 -78.31124300144171 -32.49999999999999
  endloop
endfacet
facet normal -0.27134950701046023 -0.9624808803530491 3.061540403250588e-31
  outer loop
    vertex 402.89984327497234 -78.2120719912913 -32.49999999999999
    vertex 403.25160437528416 -78.31124300144171 -17.49999999999999
    vertex 402.89984327497234 -78.2120719912913 -17.49999999999999
  endloop
endfacet
facet normal -0.012995114389803811 -0.9999155599359358 1.817974590283111e-20
  outer loop
    vertex 402.89984327497234 -78.2120719912913 -17.49999999999999
    vertex 402.5344007973483 -78.20732262345476 -32.49999999999999
    vertex 402.89984327497234 -78.2120719912913 -32.49999999999999
  endloop
endfacet
facet normal -0.012995114389803811 -0.9999155599359358 1.817974590283111e-20
  outer loop
    vertex 402.5344007973483 -78.20732262345476 -32.49999999999999
    vertex 402.89984327497234 -78.2120719912913 -17.49999999999999
    vertex 402.5344007973483 -78.20732262345476 -17.49999999999999
  endloop
endfacet
facet normal 0.24624487380109047 -0.9692076465477792 -3.0829374688014716e-31
  outer loop
    vertex 402.5344007973483 -78.20732262345476 -17.49999999999999
    vertex 402.18018124333986 -78.29731855950145 -32.49999999999999
    vertex 402.5344007973483 -78.20732262345476 -32.49999999999999
  endloop
endfacet
facet normal 0.24624487380109047 -0.9692076465477792 -3.0829374688014716e-31
  outer loop
    vertex 402.18018124333986 -78.29731855950145 -32.49999999999999
    vertex 402.5344007973483 -78.20732262345476 -17.49999999999999
    vertex 402.18018124333986 -78.29731855950145 -17.49999999999999
  endloop
endfacet
facet normal 0.4887036807813398 -0.8724498337387488 -6.836806873511283e-19
  outer loop
    vertex 402.18018124333986 -78.29731855950145 -17.49999999999999
    vertex 401.8613240901772 -78.47592672511513 -32.49999999999999
    vertex 402.18018124333986 -78.29731855950145 -32.49999999999999
  endloop
endfacet
facet normal 0.4887036807813398 -0.8724498337387488 -6.836806873511283e-19
  outer loop
    vertex 401.8613240901772 -78.47592672511513 -32.49999999999999
    vertex 402.18018124333986 -78.29731855950145 -17.49999999999999
    vertex 401.8613240901772 -78.47592672511513 -17.49999999999999
  endloop
endfacet
facet normal 0.6978581395373253 -0.7162360065519627 0.0
  outer loop
    vertex 401.8613240901772 -78.47592672511513 -17.49999999999999
    vertex 401.59955892591205 -78.73097526897313 -32.49999999999999
    vertex 401.8613240901772 -78.47592672511513 -32.49999999999999
  endloop
endfacet
facet normal 0.6978581395373253 -0.7162360065519627 0.0
  outer loop
    vertex 401.59955892591205 -78.73097526897313 -32.49999999999999
    vertex 401.8613240901772 -78.47592672511513 -17.49999999999999
    vertex 401.59955892591205 -78.73097526897313 -17.49999999999999
  endloop
endfacet
facet normal 0.8594547193489438 -0.5112118791546499 7.151689309237867e-19
  outer loop
    vertex 401.59955892591205 -78.73097526897313 -32.49999999999999
    vertex 401.4127246139017 -79.04508305429923 -17.49999999999999
    vertex 401.4127246139017 -79.04508305429923 -32.49999999999999
  endloop
endfacet
facet normal 0.8594547193489438 -0.5112118791546499 7.151689309237867e-19
  outer loop
    vertex 401.4127246139017 -79.04508305429923 -17.49999999999999
    vertex 401.59955892591205 -78.73097526897313 -32.49999999999999
    vertex 401.59955892591205 -78.73097526897313 -17.49999999999999
  endloop
endfacet
facet normal 0.9624808803530472 -0.27134950701046645 0.0
  outer loop
    vertex 401.4127246139017 -79.04508305429923 -32.49999999999999
    vertex 401.31355360375125 -79.39684415461106 -17.49999999999999
    vertex 401.31355360375125 -79.39684415461106 -32.49999999999999
  endloop
endfacet
facet normal 0.9624808803530472 -0.27134950701046645 0.0
  outer loop
    vertex 401.31355360375125 -79.39684415461106 -17.49999999999999
    vertex 401.4127246139017 -79.04508305429923 -32.49999999999999
    vertex 401.4127246139017 -79.04508305429923 -17.49999999999999
  endloop
endfacet
facet normal 0.9999155599359361 -0.012995114389788386 0.0
  outer loop
    vertex 401.31355360375125 -79.39684415461106 -32.49999999999999
    vertex 401.30880423591475 -79.76228663223512 -17.49999999999999
    vertex 401.30880423591475 -79.76228663223512 -32.49999999999999
  endloop
endfacet
facet normal 0.9999155599359361 -0.012995114389788386 0.0
  outer loop
    vertex 401.30880423591475 -79.76228663223512 -17.49999999999999
    vertex 401.31355360375125 -79.39684415461106 -32.49999999999999
    vertex 401.31355360375125 -79.39684415461106 -17.49999999999999
  endloop
endfacet
facet normal 0.9692076465477728 0.246244873801116 6.834611958279694e-19
  outer loop
    vertex 401.30880423591475 -79.76228663223512 -32.49999999999999
    vertex 401.39880017196145 -80.11650618624356 -17.49999999999999
    vertex 401.39880017196145 -80.11650618624356 -32.49999999999999
  endloop
endfacet
facet normal 0.9692076465477728 0.246244873801116 6.834611958279694e-19
  outer loop
    vertex 401.39880017196145 -80.11650618624356 -17.49999999999999
    vertex 401.30880423591475 -79.76228663223512 -32.49999999999999
    vertex 401.30880423591475 -79.76228663223512 -17.49999999999999
  endloop
endfacet
facet normal 0.8724498337387767 0.48870368078128995 -1.1100648211612282e-30
  outer loop
    vertex 401.39880017196145 -80.11650618624356 -32.49999999999999
    vertex 401.5774083375751 -80.43536333940618 -17.49999999999999
    vertex 401.5774083375751 -80.43536333940618 -32.49999999999999
  endloop
endfacet
facet normal 0.8724498337387767 0.48870368078128995 -1.1100648211612282e-30
  outer loop
    vertex 401.5774083375751 -80.43536333940618 -17.49999999999999
    vertex 401.39880017196145 -80.11650618624356 -32.49999999999999
    vertex 401.39880017196145 -80.11650618624356 -17.49999999999999
  endloop
endfacet
facet normal 0.7162360065519473 0.6978581395373411 0.0
  outer loop
    vertex 401.5774083375751 -80.43536333940618 -32.49999999999999
    vertex 401.83245688143313 -80.69712850367132 -17.49999999999999
    vertex 401.83245688143313 -80.69712850367132 -32.49999999999999
  endloop
endfacet
facet normal 0.7162360065519473 0.6978581395373411 0.0
  outer loop
    vertex 401.83245688143313 -80.69712850367132 -17.49999999999999
    vertex 401.5774083375751 -80.43536333940618 -32.49999999999999
    vertex 401.5774083375751 -80.43536333940618 -17.49999999999999
  endloop
endfacet
facet normal 0.511211879154609 0.859454719348968 -6.011747162743866e-19
  outer loop
    vertex 401.83245688143313 -80.69712850367132 -17.49999999999999
    vertex 402.1465646667592 -80.88396281568171 -32.49999999999999
    vertex 401.83245688143313 -80.69712850367132 -32.49999999999999
  endloop
endfacet
facet normal 0.511211879154609 0.859454719348968 -6.011747162743866e-19
  outer loop
    vertex 402.1465646667592 -80.88396281568171 -32.49999999999999
    vertex 401.83245688143313 -80.69712850367132 -17.49999999999999
    vertex 402.1465646667592 -80.88396281568171 -17.49999999999999
  endloop
endfacet
facet normal 0.27134950701046023 0.9624808803530491 3.061540403250588e-31
  outer loop
    vertex 402.1465646667592 -80.88396281568171 -17.49999999999999
    vertex 402.49832576707104 -80.98313382583213 -32.49999999999999
    vertex 402.1465646667592 -80.88396281568171 -32.49999999999999
  endloop
endfacet
facet normal 0.27134950701046023 0.9624808803530491 3.061540403250588e-31
  outer loop
    vertex 402.49832576707104 -80.98313382583213 -32.49999999999999
    vertex 402.1465646667592 -80.88396281568171 -17.49999999999999
    vertex 402.49832576707104 -80.98313382583213 -17.49999999999999
  endloop
endfacet
facet normal 0.012995114389803811 0.9999155599359358 1.817974590283111e-20
  outer loop
    vertex 402.49832576707104 -80.98313382583213 -17.49999999999999
    vertex 402.8637682446951 -80.98788319366867 -32.49999999999999
    vertex 402.49832576707104 -80.98313382583213 -32.49999999999999
  endloop
endfacet
facet normal 0.012995114389803811 0.9999155599359358 1.817974590283111e-20
  outer loop
    vertex 402.8637682446951 -80.98788319366867 -32.49999999999999
    vertex 402.49832576707104 -80.98313382583213 -17.49999999999999
    vertex 402.8637682446951 -80.98788319366867 -17.49999999999999
  endloop
endfacet
facet normal -0.24624487380109047 0.9692076465477792 -3.0829374688014716e-31
  outer loop
    vertex 402.8637682446951 -80.98788319366867 -17.49999999999999
    vertex 403.2179877987036 -80.89788725762196 -32.49999999999999
    vertex 402.8637682446951 -80.98788319366867 -32.49999999999999
  endloop
endfacet
facet normal -0.24624487380109047 0.9692076465477792 -3.0829374688014716e-31
  outer loop
    vertex 403.2179877987036 -80.89788725762196 -32.49999999999999
    vertex 402.8637682446951 -80.98788319366867 -17.49999999999999
    vertex 403.2179877987036 -80.89788725762196 -17.49999999999999
  endloop
endfacet
facet normal -0.4887036807813398 0.8724498337387488 -6.836806873511283e-19
  outer loop
    vertex 403.2179877987036 -80.89788725762196 -17.49999999999999
    vertex 403.53684495186616 -80.7192790920083 -32.49999999999999
    vertex 403.2179877987036 -80.89788725762196 -32.49999999999999
  endloop
endfacet
facet normal -0.4887036807813398 0.8724498337387488 -6.836806873511283e-19
  outer loop
    vertex 403.53684495186616 -80.7192790920083 -32.49999999999999
    vertex 403.2179877987036 -80.89788725762196 -17.49999999999999
    vertex 403.53684495186616 -80.7192790920083 -17.49999999999999
  endloop
endfacet
facet normal -0.3826834323650873 -0.9238795325112878 -0.0
  outer loop
    vertex 378.1990845210217 -78.3851673432635 -17.49999999999999
    vertex 377.8614311841652 -78.24530675175703 -32.49999999999999
    vertex 378.1990845210217 -78.3851673432635 -32.49999999999999
  endloop
endfacet
facet normal -0.3826834323650873 -0.9238795325112878 -0.0
  outer loop
    vertex 377.8614311841652 -78.24530675175703 -32.49999999999999
    vertex 378.1990845210217 -78.3851673432635 -17.49999999999999
    vertex 377.8614311841652 -78.24530675175703 -17.49999999999999
  endloop
endfacet
facet normal -0.13052619222005618 -0.9914448613738098 -0.0
  outer loop
    vertex 377.8614311841652 -78.24530675175703 -17.49999999999999
    vertex 377.4990845210217 -78.1976029085617 -32.49999999999999
    vertex 377.8614311841652 -78.24530675175703 -32.49999999999999
  endloop
endfacet
facet normal -0.13052619222005618 -0.9914448613738098 -0.0
  outer loop
    vertex 377.4990845210217 -78.1976029085617 -32.49999999999999
    vertex 377.8614311841652 -78.24530675175703 -17.49999999999999
    vertex 377.4990845210217 -78.1976029085617 -17.49999999999999
  endloop
endfacet
facet normal 0.13052619222005618 -0.9914448613738098 0.0
  outer loop
    vertex 377.4990845210217 -78.1976029085617 -17.49999999999999
    vertex 377.1367378578782 -78.24530675175703 -32.49999999999999
    vertex 377.4990845210217 -78.1976029085617 -32.49999999999999
  endloop
endfacet
facet normal 0.13052619222005618 -0.9914448613738098 0.0
  outer loop
    vertex 377.1367378578782 -78.24530675175703 -32.49999999999999
    vertex 377.4990845210217 -78.1976029085617 -17.49999999999999
    vertex 377.1367378578782 -78.24530675175703 -17.49999999999999
  endloop
endfacet
facet normal 0.3826834323650873 -0.9238795325112878 0.0
  outer loop
    vertex 377.1367378578782 -78.24530675175703 -17.49999999999999
    vertex 376.7990845210217 -78.3851673432635 -32.49999999999999
    vertex 377.1367378578782 -78.24530675175703 -32.49999999999999
  endloop
endfacet
facet normal 0.3826834323650873 -0.9238795325112878 0.0
  outer loop
    vertex 376.7990845210217 -78.3851673432635 -32.49999999999999
    vertex 377.1367378578782 -78.24530675175703 -17.49999999999999
    vertex 376.7990845210217 -78.3851673432635 -17.49999999999999
  endloop
endfacet
facet normal 0.6087614290087268 -0.7933533402912306 0.0
  outer loop
    vertex 376.7990845210217 -78.3851673432635 -17.49999999999999
    vertex 376.50913502736057 -78.60765341490055 -32.49999999999999
    vertex 376.7990845210217 -78.3851673432635 -32.49999999999999
  endloop
endfacet
facet normal 0.6087614290087268 -0.7933533402912306 0.0
  outer loop
    vertex 376.50913502736057 -78.60765341490055 -32.49999999999999
    vertex 376.7990845210217 -78.3851673432635 -17.49999999999999
    vertex 376.50913502736057 -78.60765341490055 -17.49999999999999
  endloop
endfacet
facet normal 0.7933533402912196 -0.608761429008741 0.0
  outer loop
    vertex 376.50913502736057 -78.60765341490055 -32.49999999999999
    vertex 376.2866489557235 -78.89760290856171 -17.49999999999999
    vertex 376.2866489557235 -78.89760290856171 -32.49999999999999
  endloop
endfacet
facet normal 0.7933533402912196 -0.608761429008741 0.0
  outer loop
    vertex 376.2866489557235 -78.89760290856171 -17.49999999999999
    vertex 376.50913502736057 -78.60765341490055 -32.49999999999999
    vertex 376.50913502736057 -78.60765341490055 -17.49999999999999
  endloop
endfacet
facet normal 0.9238795325112801 -0.3826834323651059 0.0
  outer loop
    vertex 376.2866489557235 -78.89760290856171 -32.49999999999999
    vertex 376.146788364217 -79.23525624541817 -17.49999999999999
    vertex 376.146788364217 -79.23525624541817 -32.49999999999999
  endloop
endfacet
facet normal 0.9238795325112801 -0.3826834323651059 0.0
  outer loop
    vertex 376.146788364217 -79.23525624541817 -17.49999999999999
    vertex 376.2866489557235 -78.89760290856171 -32.49999999999999
    vertex 376.2866489557235 -78.89760290856171 -17.49999999999999
  endloop
endfacet
facet normal 0.9914448613738142 -0.13052619222002385 0.0
  outer loop
    vertex 376.146788364217 -79.23525624541817 -32.49999999999999
    vertex 376.09908452102167 -79.5976029085617 -17.49999999999999
    vertex 376.09908452102167 -79.5976029085617 -32.49999999999999
  endloop
endfacet
facet normal 0.9914448613738142 -0.13052619222002385 0.0
  outer loop
    vertex 376.09908452102167 -79.5976029085617 -17.49999999999999
    vertex 376.146788364217 -79.23525624541817 -32.49999999999999
    vertex 376.146788364217 -79.23525624541817 -17.49999999999999
  endloop
endfacet
facet normal 0.9914448613738142 0.13052619222002385 0.0
  outer loop
    vertex 376.09908452102167 -79.5976029085617 -32.49999999999999
    vertex 376.146788364217 -79.95994957170524 -17.49999999999999
    vertex 376.146788364217 -79.95994957170524 -32.49999999999999
  endloop
endfacet
facet normal 0.9914448613738142 0.13052619222002385 0.0
  outer loop
    vertex 376.146788364217 -79.95994957170524 -17.49999999999999
    vertex 376.09908452102167 -79.5976029085617 -32.49999999999999
    vertex 376.09908452102167 -79.5976029085617 -17.49999999999999
  endloop
endfacet
facet normal 0.9238795325112801 0.3826834323651059 0.0
  outer loop
    vertex 376.146788364217 -79.95994957170524 -32.49999999999999
    vertex 376.2866489557235 -80.2976029085617 -17.49999999999999
    vertex 376.2866489557235 -80.2976029085617 -32.49999999999999
  endloop
endfacet
facet normal 0.9238795325112801 0.3826834323651059 0.0
  outer loop
    vertex 376.2866489557235 -80.2976029085617 -17.49999999999999
    vertex 376.146788364217 -79.95994957170524 -32.49999999999999
    vertex 376.146788364217 -79.95994957170524 -17.49999999999999
  endloop
endfacet
facet normal 0.7933533402912196 0.608761429008741 0.0
  outer loop
    vertex 376.2866489557235 -80.2976029085617 -32.49999999999999
    vertex 376.50913502736057 -80.58755240222288 -17.49999999999999
    vertex 376.50913502736057 -80.58755240222288 -32.49999999999999
  endloop
endfacet
facet normal 0.7933533402912196 0.608761429008741 0.0
  outer loop
    vertex 376.50913502736057 -80.58755240222288 -17.49999999999999
    vertex 376.2866489557235 -80.2976029085617 -32.49999999999999
    vertex 376.2866489557235 -80.2976029085617 -17.49999999999999
  endloop
endfacet
facet normal 0.6087614290087268 0.7933533402912306 0.0
  outer loop
    vertex 376.50913502736057 -80.58755240222288 -17.49999999999999
    vertex 376.7990845210217 -80.81003847385992 -32.49999999999999
    vertex 376.50913502736057 -80.58755240222288 -32.49999999999999
  endloop
endfacet
facet normal 0.6087614290087268 0.7933533402912306 0.0
  outer loop
    vertex 376.7990845210217 -80.81003847385992 -32.49999999999999
    vertex 376.50913502736057 -80.58755240222288 -17.49999999999999
    vertex 376.7990845210217 -80.81003847385992 -17.49999999999999
  endloop
endfacet
facet normal 0.3826834323650873 0.9238795325112878 0.0
  outer loop
    vertex 376.7990845210217 -80.81003847385992 -17.49999999999999
    vertex 377.1367378578782 -80.94989906536641 -32.49999999999999
    vertex 376.7990845210217 -80.81003847385992 -32.49999999999999
  endloop
endfacet
facet normal 0.3826834323650873 0.9238795325112878 0.0
  outer loop
    vertex 377.1367378578782 -80.94989906536641 -32.49999999999999
    vertex 376.7990845210217 -80.81003847385992 -17.49999999999999
    vertex 377.1367378578782 -80.94989906536641 -17.49999999999999
  endloop
endfacet
facet normal 0.13052619222005618 0.9914448613738098 0.0
  outer loop
    vertex 377.1367378578782 -80.94989906536641 -17.49999999999999
    vertex 377.4990845210217 -80.9976029085617 -32.49999999999999
    vertex 377.1367378578782 -80.94989906536641 -32.49999999999999
  endloop
endfacet
facet normal 0.13052619222005618 0.9914448613738098 0.0
  outer loop
    vertex 377.4990845210217 -80.9976029085617 -32.49999999999999
    vertex 377.1367378578782 -80.94989906536641 -17.49999999999999
    vertex 377.4990845210217 -80.9976029085617 -17.49999999999999
  endloop
endfacet
facet normal -0.13052619222005618 0.9914448613738098 0.0
  outer loop
    vertex 377.4990845210217 -80.9976029085617 -17.49999999999999
    vertex 377.8614311841652 -80.94989906536641 -32.49999999999999
    vertex 377.4990845210217 -80.9976029085617 -32.49999999999999
  endloop
endfacet
facet normal -0.13052619222005618 0.9914448613738098 0.0
  outer loop
    vertex 377.8614311841652 -80.94989906536641 -32.49999999999999
    vertex 377.4990845210217 -80.9976029085617 -17.49999999999999
    vertex 377.8614311841652 -80.94989906536641 -17.49999999999999
  endloop
endfacet
facet normal -0.3826834323650873 0.9238795325112878 0.0
  outer loop
    vertex 377.8614311841652 -80.94989906536641 -17.49999999999999
    vertex 378.1990845210217 -80.81003847385992 -32.49999999999999
    vertex 377.8614311841652 -80.94989906536641 -32.49999999999999
  endloop
endfacet
facet normal -0.3826834323650873 0.9238795325112878 0.0
  outer loop
    vertex 378.1990845210217 -80.81003847385992 -32.49999999999999
    vertex 377.8614311841652 -80.94989906536641 -17.49999999999999
    vertex 378.1990845210217 -80.81003847385992 -17.49999999999999
  endloop
endfacet
facet normal -0.6122527840751505 0.7906620822491058 9.259338481624249e-06
  outer loop
    vertex 378.1990845210217 -80.81003847385992 -17.49999999999999
    vertex 378.48903401468283 -80.58755240222288 -32.49999999999999
    vertex 378.1990845210217 -80.81003847385992 -32.49999999999999
  endloop
endfacet
facet normal -0.6122527840751505 0.7906620822491058 9.259338481624249e-06
  outer loop
    vertex 378.48903401468283 -80.58755240222288 -32.49999999999999
    vertex 378.1990845210217 -80.81003847385992 -17.49999999999999
    vertex 378.48903401468283 -80.58755240222288 -17.49999999999999
  endloop
endfacet
facet normal -0.7897026180048858 0.6134898328222741 1.1829107148217577e-05
  outer loop
    vertex 378.7115200863199 -80.2976029085617 -17.49999999999999
    vertex 378.48903401468283 -80.58755240222288 -32.49999999999999
    vertex 378.48903401468283 -80.58755240222288 -17.49999999999999
  endloop
endfacet
facet normal -0.7897026180048858 0.6134898328222741 1.1829107148217577e-05
  outer loop
    vertex 378.48903401468283 -80.58755240222288 -32.49999999999999
    vertex 378.7115200863199 -80.2976029085617 -17.49999999999999
    vertex 378.7115200863199 -80.2976029085617 -32.49999999999999
  endloop
endfacet
facet normal -0.9238795325112823 0.38268343236510044 0.0
  outer loop
    vertex 378.85138067782634 -79.95994957170522 -17.49999999999999
    vertex 378.7115200863199 -80.2976029085617 -32.49999999999999
    vertex 378.7115200863199 -80.2976029085617 -17.49999999999999
  endloop
endfacet
facet normal -0.9238795325112823 0.38268343236510044 0.0
  outer loop
    vertex 378.7115200863199 -80.2976029085617 -32.49999999999999
    vertex 378.85138067782634 -79.95994957170522 -17.49999999999999
    vertex 378.85138067782634 -79.95994957170522 -32.49999999999999
  endloop
endfacet
facet normal -0.9904384973351351 0.13795498813452112 6.515614789014457e-05
  outer loop
    vertex 378.8990845210217 -79.5976029085617 -17.49999999999999
    vertex 378.85138067782634 -79.95994957170522 -32.49999999999999
    vertex 378.85138067782634 -79.95994957170522 -17.49999999999999
  endloop
endfacet
facet normal -0.9904384973351351 0.13795498813452112 6.515614789014457e-05
  outer loop
    vertex 378.85138067782634 -79.95994957170522 -32.49999999999999
    vertex 378.8990845210217 -79.5976029085617 -17.49999999999999
    vertex 378.8990845210217 -79.5976029085617 -32.49999999999999
  endloop
endfacet
facet normal -0.9904384973351356 -0.1379549881345191 6.515614789014463e-05
  outer loop
    vertex 378.85138067782634 -79.23525624541817 -17.49999999999999
    vertex 378.8990845210217 -79.5976029085617 -32.49999999999999
    vertex 378.8990845210217 -79.5976029085617 -17.49999999999999
  endloop
endfacet
facet normal -0.9904384973351356 -0.1379549881345191 6.515614789014463e-05
  outer loop
    vertex 378.8990845210217 -79.5976029085617 -32.49999999999999
    vertex 378.85138067782634 -79.23525624541817 -17.49999999999999
    vertex 378.85138067782634 -79.23525624541817 -32.49999999999999
  endloop
endfacet
facet normal -0.9238795325112801 -0.3826834323651059 -0.0
  outer loop
    vertex 378.7115200863199 -78.89760290856171 -17.49999999999999
    vertex 378.85138067782634 -79.23525624541817 -32.49999999999999
    vertex 378.85138067782634 -79.23525624541817 -17.49999999999999
  endloop
endfacet
facet normal -0.9238795325112801 -0.3826834323651059 -0.0
  outer loop
    vertex 378.85138067782634 -79.23525624541817 -32.49999999999999
    vertex 378.7115200863199 -78.89760290856171 -17.49999999999999
    vertex 378.7115200863199 -78.89760290856171 -32.49999999999999
  endloop
endfacet
facet normal -0.7897026180048858 -0.6134898328222739 1.1829107148217543e-05
  outer loop
    vertex 378.48903401468283 -78.60765341490055 -17.49999999999999
    vertex 378.7115200863199 -78.89760290856171 -32.49999999999999
    vertex 378.7115200863199 -78.89760290856171 -17.49999999999999
  endloop
endfacet
facet normal -0.7897026180048858 -0.6134898328222739 1.1829107148217543e-05
  outer loop
    vertex 378.7115200863199 -78.89760290856171 -32.49999999999999
    vertex 378.48903401468283 -78.60765341490055 -17.49999999999999
    vertex 378.48903401468283 -78.60765341490055 -32.49999999999999
  endloop
endfacet
facet normal -0.6122527840751505 -0.7906620822491058 9.259338481623857e-06
  outer loop
    vertex 378.48903401468283 -78.60765341490055 -17.49999999999999
    vertex 378.1990845210217 -78.3851673432635 -32.49999999999999
    vertex 378.48903401468283 -78.60765341490055 -32.49999999999999
  endloop
endfacet
facet normal -0.6122527840751505 -0.7906620822491058 9.259338481623857e-06
  outer loop
    vertex 378.1990845210217 -78.3851673432635 -32.49999999999999
    vertex 378.48903401468283 -78.60765341490055 -17.49999999999999
    vertex 378.1990845210217 -78.3851673432635 -17.49999999999999
  endloop
endfacet
facet normal 0.0 1.0 0.0
  outer loop
    vertex 381.09908452102167 -77.09760290856171 -12.499999999999988
    vertex 399.0990845210217 -77.09760290856171 -17.49999999999999
    vertex 381.09908452102167 -77.09760290856171 -17.49999999999999
  endloop
endfacet
facet normal 0.0 1.0 0.0
  outer loop
    vertex 399.0990845210217 -77.09760290856171 -17.49999999999999
    vertex 381.09908452102167 -77.09760290856171 -12.499999999999988
    vertex 399.0990845210217 -77.09760290856171 -12.499999999999988
  endloop
endfacet
facet normal 0.0 1.0 0.0
  outer loop
    vertex 374.09908452102167 -77.09760290856171 -17.49999999999999
    vertex 406.0990845210217 -77.09760290856171 -32.49999999999999
    vertex 374.09908452102167 -77.09760290856171 -32.49999999999999
  endloop
endfacet
facet normal 0.0 1.0 0.0
  outer loop
    vertex 406.0990845210217 -77.09760290856171 -32.49999999999999
    vertex 374.09908452102167 -77.09760290856171 -17.49999999999999
    vertex 406.0990845210217 -77.09760290856171 -17.49999999999999
  endloop
endfacet
facet normal 0.0 1.0 0.0
  outer loop
    vertex 406.0990845210217 -77.09760290856171 -17.49999999999999
    vertex 374.09908452102167 -77.09760290856171 -17.49999999999999
    vertex 381.09908452102167 -77.09760290856171 -17.49999999999999
  endloop
endfacet
facet normal 0.0 1.0 0.0
  outer loop
    vertex 406.0990845210217 -77.09760290856171 -17.49999999999999
    vertex 381.09908452102167 -77.09760290856171 -17.49999999999999
    vertex 399.0990845210217 -77.09760290856171 -17.49999999999999
  endloop
endfacet
facet normal 0.0 0.0 1.0
  outer loop
    vertex 374.09908452102167 -82.09760290856171 -17.49999999999999
    vertex 376.2866489557235 -80.2976029085617 -17.49999999999999
    vertex 374.09908452102167 -77.09760290856171 -17.49999999999999
  endloop
endfacet
facet normal 0.0 0.0 1.0
  outer loop
    vertex 376.2866489557235 -80.2976029085617 -17.49999999999999
    vertex 374.09908452102167 -82.09760290856171 -17.49999999999999
    vertex 376.50913502736057 -80.58755240222288 -17.49999999999999
  endloop
endfacet
facet normal 0.0 0.0 1.0
  outer loop
    vertex 376.50913502736057 -80.58755240222288 -17.49999999999999
    vertex 374.09908452102167 -82.09760290856171 -17.49999999999999
    vertex 376.7990845210217 -80.81003847385992 -17.49999999999999
  endloop
endfacet
facet normal 0.0 0.0 1.0
  outer loop
    vertex 376.7990845210217 -80.81003847385992 -17.49999999999999
    vertex 374.09908452102167 -82.09760290856171 -17.49999999999999
    vertex 377.1367378578782 -80.94989906536641 -17.49999999999999
  endloop
endfacet
facet normal 0.0 0.0 1.0
  outer loop
    vertex 377.1367378578782 -80.94989906536641 -17.49999999999999
    vertex 374.09908452102167 -82.09760290856171 -17.49999999999999
    vertex 381.09908452102167 -82.09760290856171 -17.49999999999999
  endloop
endfacet
facet normal 0.0 0.0 1.0
  outer loop
    vertex 374.09908452102167 -77.09760290856171 -17.49999999999999
    vertex 376.2866489557235 -80.2976029085617 -17.49999999999999
    vertex 376.146788364217 -79.95994957170524 -17.49999999999999
  endloop
endfacet
facet normal 0.0 0.0 1.0
  outer loop
    vertex 374.09908452102167 -77.09760290856171 -17.49999999999999
    vertex 376.146788364217 -79.95994957170524 -17.49999999999999
    vertex 376.09908452102167 -79.5976029085617 -17.49999999999999
  endloop
endfacet
facet normal 0.0 0.0 1.0
  outer loop
    vertex 377.1367378578782 -80.94989906536641 -17.49999999999999
    vertex 381.09908452102167 -82.09760290856171 -17.49999999999999
    vertex 377.4990845210217 -80.9976029085617 -17.49999999999999
  endloop
endfacet
facet normal 0.0 0.0 1.0
  outer loop
    vertex 377.4990845210217 -80.9976029085617 -17.49999999999999
    vertex 381.09908452102167 -82.09760290856171 -17.49999999999999
    vertex 377.8614311841652 -80.94989906536641 -17.49999999999999
  endloop
endfacet
facet normal 0.0 0.0 1.0
  outer loop
    vertex 377.8614311841652 -80.94989906536641 -17.49999999999999
    vertex 381.09908452102167 -82.09760290856171 -17.49999999999999
    vertex 378.1990845210217 -80.81003847385992 -17.49999999999999
  endloop
endfacet
facet normal 0.0 0.0 1.0
  outer loop
    vertex 378.1990845210217 -80.81003847385992 -17.49999999999999
    vertex 381.09908452102167 -82.09760290856171 -17.49999999999999
    vertex 378.48903401468283 -80.58755240222288 -17.49999999999999
  endloop
endfacet
facet normal 0.0 0.0 1.0
  outer loop
    vertex 378.48903401468283 -80.58755240222288 -17.49999999999999
    vertex 381.09908452102167 -82.09760290856171 -17.49999999999999
    vertex 378.7115200863199 -80.2976029085617 -17.49999999999999
  endloop
endfacet
facet normal 0.0 0.0 1.0
  outer loop
    vertex 378.7115200863199 -80.2976029085617 -17.49999999999999
    vertex 381.09908452102167 -82.09760290856171 -17.49999999999999
    vertex 378.85138067782634 -79.95994957170522 -17.49999999999999
  endloop
endfacet
facet normal 0.0 0.0 1.0
  outer loop
    vertex 378.85138067782634 -79.95994957170522 -17.49999999999999
    vertex 381.09908452102167 -82.09760290856171 -17.49999999999999
    vertex 378.8990845210217 -79.5976029085617 -17.49999999999999
  endloop
endfacet
facet normal 0.0 0.0 1.0
  outer loop
    vertex 374.09908452102167 -77.09760290856171 -17.49999999999999
    vertex 377.1367378578782 -78.24530675175703 -17.49999999999999
    vertex 381.09908452102167 -77.09760290856171 -17.49999999999999
  endloop
endfacet
facet normal 0.0 0.0 1.0
  outer loop
    vertex 377.1367378578782 -78.24530675175703 -17.49999999999999
    vertex 374.09908452102167 -77.09760290856171 -17.49999999999999
    vertex 376.7990845210217 -78.3851673432635 -17.49999999999999
  endloop
endfacet
facet normal 0.0 0.0 1.0
  outer loop
    vertex 376.7990845210217 -78.3851673432635 -17.49999999999999
    vertex 374.09908452102167 -77.09760290856171 -17.49999999999999
    vertex 376.50913502736057 -78.60765341490055 -17.49999999999999
  endloop
endfacet
facet normal 0.0 0.0 1.0
  outer loop
    vertex 376.50913502736057 -78.60765341490055 -17.49999999999999
    vertex 374.09908452102167 -77.09760290856171 -17.49999999999999
    vertex 376.2866489557235 -78.89760290856171 -17.49999999999999
  endloop
endfacet
facet normal 0.0 0.0 1.0
  outer loop
    vertex 376.2866489557235 -78.89760290856171 -17.49999999999999
    vertex 374.09908452102167 -77.09760290856171 -17.49999999999999
    vertex 376.146788364217 -79.23525624541817 -17.49999999999999
  endloop
endfacet
facet normal 0.0 0.0 1.0
  outer loop
    vertex 376.146788364217 -79.23525624541817 -17.49999999999999
    vertex 374.09908452102167 -77.09760290856171 -17.49999999999999
    vertex 376.09908452102167 -79.5976029085617 -17.49999999999999
  endloop
endfacet
facet normal 0.0 0.0 1.0
  outer loop
    vertex 381.09908452102167 -77.09760290856171 -17.49999999999999
    vertex 377.1367378578782 -78.24530675175703 -17.49999999999999
    vertex 377.4990845210217 -78.1976029085617 -17.49999999999999
  endloop
endfacet
facet normal 0.0 0.0 1.0
  outer loop
    vertex 381.09908452102167 -77.09760290856171 -17.49999999999999
    vertex 377.4990845210217 -78.1976029085617 -17.49999999999999
    vertex 377.8614311841652 -78.24530675175703 -17.49999999999999
  endloop
endfacet
facet normal 0.0 0.0 1.0
  outer loop
    vertex 381.09908452102167 -77.09760290856171 -17.49999999999999
    vertex 377.8614311841652 -78.24530675175703 -17.49999999999999
    vertex 378.1990845210217 -78.3851673432635 -17.49999999999999
  endloop
endfacet
facet normal 0.0 0.0 1.0
  outer loop
    vertex 381.09908452102167 -77.09760290856171 -17.49999999999999
    vertex 378.1990845210217 -78.3851673432635 -17.49999999999999
    vertex 378.48903401468283 -78.60765341490055 -17.49999999999999
  endloop
endfacet
facet normal 0.0 0.0 1.0
  outer loop
    vertex 381.09908452102167 -77.09760290856171 -17.49999999999999
    vertex 378.48903401468283 -78.60765341490055 -17.49999999999999
    vertex 378.7115200863199 -78.89760290856171 -17.49999999999999
  endloop
endfacet
facet normal 0.0 0.0 1.0
  outer loop
    vertex 381.09908452102167 -77.09760290856171 -17.49999999999999
    vertex 378.7115200863199 -78.89760290856171 -17.49999999999999
    vertex 378.85138067782634 -79.23525624541817 -17.49999999999999
  endloop
endfacet
facet normal 0.0 0.0 1.0
  outer loop
    vertex 381.09908452102167 -77.09760290856171 -17.49999999999999
    vertex 378.85138067782634 -79.23525624541817 -17.49999999999999
    vertex 378.8990845210217 -79.5976029085617 -17.49999999999999
  endloop
endfacet
facet normal 0.0 0.0 1.0
  outer loop
    vertex 381.09908452102167 -77.09760290856171 -17.49999999999999
    vertex 378.8990845210217 -79.5976029085617 -17.49999999999999
    vertex 381.09908452102167 -82.09760290856171 -17.49999999999999
  endloop
endfacet
facet normal 0.0 0.0 1.0
  outer loop
    vertex 399.0990845210217 -82.09760290856171 -17.49999999999999
    vertex 401.5774083375751 -80.43536333940618 -17.49999999999999
    vertex 399.0990845210217 -77.09760290856171 -17.49999999999999
  endloop
endfacet
facet normal 0.0 0.0 1.0
  outer loop
    vertex 401.5774083375751 -80.43536333940618 -17.49999999999999
    vertex 399.0990845210217 -82.09760290856171 -17.49999999999999
    vertex 401.83245688143313 -80.69712850367132 -17.49999999999999
  endloop
endfacet
facet normal 0.0 0.0 1.0
  outer loop
    vertex 401.83245688143313 -80.69712850367132 -17.49999999999999
    vertex 399.0990845210217 -82.09760290856171 -17.49999999999999
    vertex 402.1465646667592 -80.88396281568171 -17.49999999999999
  endloop
endfacet
facet normal 0.0 0.0 1.0
  outer loop
    vertex 402.1465646667592 -80.88396281568171 -17.49999999999999
    vertex 399.0990845210217 -82.09760290856171 -17.49999999999999
    vertex 406.0990845210217 -82.09760290856171 -17.49999999999999
  endloop
endfacet
facet normal 0.0 0.0 1.0
  outer loop
    vertex 399.0990845210217 -77.09760290856171 -17.49999999999999
    vertex 401.5774083375751 -80.43536333940618 -17.49999999999999
    vertex 401.39880017196145 -80.11650618624356 -17.49999999999999
  endloop
endfacet
facet normal 0.0 0.0 1.0
  outer loop
    vertex 399.0990845210217 -77.09760290856171 -17.49999999999999
    vertex 401.39880017196145 -80.11650618624356 -17.49999999999999
    vertex 401.30880423591475 -79.76228663223512 -17.49999999999999
  endloop
endfacet
facet normal 0.0 0.0 1.0
  outer loop
    vertex 402.1465646667592 -80.88396281568171 -17.49999999999999
    vertex 406.0990845210217 -82.09760290856171 -17.49999999999999
    vertex 402.49832576707104 -80.98313382583213 -17.49999999999999
  endloop
endfacet
facet normal 0.0 0.0 1.0
  outer loop
    vertex 402.49832576707104 -80.98313382583213 -17.49999999999999
    vertex 406.0990845210217 -82.09760290856171 -17.49999999999999
    vertex 402.8637682446951 -80.98788319366867 -17.49999999999999
  endloop
endfacet
facet normal 0.0 0.0 1.0
  outer loop
    vertex 402.8637682446951 -80.98788319366867 -17.49999999999999
    vertex 406.0990845210217 -82.09760290856171 -17.49999999999999
    vertex 403.2179877987036 -80.89788725762196 -17.49999999999999
  endloop
endfacet
facet normal 0.0 0.0 1.0
  outer loop
    vertex 403.2179877987036 -80.89788725762196 -17.49999999999999
    vertex 406.0990845210217 -82.09760290856171 -17.49999999999999
    vertex 403.53684495186616 -80.7192790920083 -17.49999999999999
  endloop
endfacet
facet normal 0.0 0.0 1.0
  outer loop
    vertex 403.53684495186616 -80.7192790920083 -17.49999999999999
    vertex 406.0990845210217 -82.09760290856171 -17.49999999999999
    vertex 403.79861011613133 -80.46423054815028 -17.49999999999999
  endloop
endfacet
facet normal 0.0 0.0 1.0
  outer loop
    vertex 403.79861011613133 -80.46423054815028 -17.49999999999999
    vertex 406.0990845210217 -82.09760290856171 -17.49999999999999
    vertex 403.9854444281417 -80.1501227628242 -17.49999999999999
  endloop
endfacet
facet normal 0.0 0.0 1.0
  outer loop
    vertex 403.9854444281417 -80.1501227628242 -17.49999999999999
    vertex 406.0990845210217 -82.09760290856171 -17.49999999999999
    vertex 404.08461543829213 -79.79836166251235 -17.49999999999999
  endloop
endfacet
facet normal 0.0 0.0 1.0
  outer loop
    vertex 404.08461543829213 -79.79836166251235 -17.49999999999999
    vertex 406.0990845210217 -82.09760290856171 -17.49999999999999
    vertex 404.08936480612863 -79.4329191848883 -17.49999999999999
  endloop
endfacet
facet normal 0.0 0.0 1.0
  outer loop
    vertex 399.0990845210217 -77.09760290856171 -17.49999999999999
    vertex 402.18018124333986 -78.29731855950145 -17.49999999999999
    vertex 406.0990845210217 -77.09760290856171 -17.49999999999999
  endloop
endfacet
facet normal 0.0 0.0 1.0
  outer loop
    vertex 402.18018124333986 -78.29731855950145 -17.49999999999999
    vertex 399.0990845210217 -77.09760290856171 -17.49999999999999
    vertex 401.8613240901772 -78.47592672511513 -17.49999999999999
  endloop
endfacet
facet normal 0.0 0.0 1.0
  outer loop
    vertex 401.8613240901772 -78.47592672511513 -17.49999999999999
    vertex 399.0990845210217 -77.09760290856171 -17.49999999999999
    vertex 401.59955892591205 -78.73097526897313 -17.49999999999999
  endloop
endfacet
facet normal 0.0 0.0 1.0
  outer loop
    vertex 401.59955892591205 -78.73097526897313 -17.49999999999999
    vertex 399.0990845210217 -77.09760290856171 -17.49999999999999
    vertex 401.4127246139017 -79.04508305429923 -17.49999999999999
  endloop
endfacet
facet normal 0.0 0.0 1.0
  outer loop
    vertex 401.4127246139017 -79.04508305429923 -17.49999999999999
    vertex 399.0990845210217 -77.09760290856171 -17.49999999999999
    vertex 401.31355360375125 -79.39684415461106 -17.49999999999999
  endloop
endfacet
facet normal 0.0 0.0 1.0
  outer loop
    vertex 401.31355360375125 -79.39684415461106 -17.49999999999999
    vertex 399.0990845210217 -77.09760290856171 -17.49999999999999
    vertex 401.30880423591475 -79.76228663223512 -17.49999999999999
  endloop
endfacet
facet normal 0.0 0.0 1.0
  outer loop
    vertex 406.0990845210217 -77.09760290856171 -17.49999999999999
    vertex 402.18018124333986 -78.29731855950145 -17.49999999999999
    vertex 402.5344007973483 -78.20732262345476 -17.49999999999999
  endloop
endfacet
facet normal 0.0 0.0 1.0
  outer loop
    vertex 406.0990845210217 -77.09760290856171 -17.49999999999999
    vertex 402.5344007973483 -78.20732262345476 -17.49999999999999
    vertex 402.89984327497234 -78.2120719912913 -17.49999999999999
  endloop
endfacet
facet normal 0.0 0.0 1.0
  outer loop
    vertex 406.0990845210217 -77.09760290856171 -17.49999999999999
    vertex 402.89984327497234 -78.2120719912913 -17.49999999999999
    vertex 403.25160437528416 -78.31124300144171 -17.49999999999999
  endloop
endfacet
facet normal 0.0 0.0 1.0
  outer loop
    vertex 406.0990845210217 -77.09760290856171 -17.49999999999999
    vertex 403.25160437528416 -78.31124300144171 -17.49999999999999
    vertex 403.56571216061025 -78.4980773134521 -17.49999999999999
  endloop
endfacet
facet normal 0.0 0.0 1.0
  outer loop
    vertex 406.0990845210217 -77.09760290856171 -17.49999999999999
    vertex 403.56571216061025 -78.4980773134521 -17.49999999999999
    vertex 403.8207607044683 -78.75984247771724 -17.49999999999999
  endloop
endfacet
facet normal 0.0 0.0 1.0
  outer loop
    vertex 406.0990845210217 -77.09760290856171 -17.49999999999999
    vertex 403.8207607044683 -78.75984247771724 -17.49999999999999
    vertex 403.999368870082 -79.07869963087988 -17.49999999999999
  endloop
endfacet
facet normal 0.0 0.0 1.0
  outer loop
    vertex 406.0990845210217 -77.09760290856171 -17.49999999999999
    vertex 403.999368870082 -79.07869963087988 -17.49999999999999
    vertex 404.08936480612863 -79.4329191848883 -17.49999999999999
  endloop
endfacet
facet normal 0.0 0.0 1.0
  outer loop
    vertex 406.0990845210217 -77.09760290856171 -17.49999999999999
    vertex 404.08936480612863 -79.4329191848883 -17.49999999999999
    vertex 406.0990845210217 -82.09760290856171 -17.49999999999999
  endloop
endfacet
facet normal 0.0 0.0 1.0
  outer loop
    vertex 399.0990845210217 -82.09760290856171 -8.49999999999999
    vertex 381.09908452102167 -65.09760290856173 -8.49999999999999
    vertex 381.09908452102167 -82.09760290856171 -8.49999999999999
  endloop
endfacet
facet normal 0.0 0.0 1.0
  outer loop
    vertex 381.09908452102167 -65.09760290856173 -8.49999999999999
    vertex 399.0990845210217 -82.09760290856171 -8.49999999999999
    vertex 399.0990845210217 -65.09760290856173 -8.49999999999999
  endloop
endfacet
facet normal 1.0 0.0 0.0
  outer loop
    vertex 399.0990845210217 -77.09760290856171 -17.49999999999999
    vertex 399.0990845210217 -82.09760290856171 -8.49999999999999
    vertex 399.0990845210217 -82.09760290856171 -17.49999999999999
  endloop
endfacet
facet normal 1.0 0.0 0.0
  outer loop
    vertex 399.0990845210217 -82.09760290856171 -8.49999999999999
    vertex 399.0990845210217 -77.09760290856171 -17.49999999999999
    vertex 399.0990845210217 -77.09760290856171 -11.49999999999999
  endloop
endfacet
facet normal 1.0 0.0 0.0
  outer loop
    vertex 399.0990845210217 -82.09760290856171 -8.49999999999999
    vertex 399.0990845210217 -77.09760290856171 -11.49999999999999
    vertex 399.0990845210217 -65.09760290856173 -8.49999999999999
  endloop
endfacet
facet normal 1.0 0.0 0.0
  outer loop
    vertex 399.0990845210217 -77.09760290856171 -11.49999999999999
    vertex 399.0990845210217 -77.09760290856171 -17.49999999999999
    vertex 399.0990845210217 -77.09760290856171 -12.499999999999988
  endloop
endfacet
facet normal 1.0 0.0 0.0
  outer loop
    vertex 399.0990845210217 -65.09760290856173 -8.49999999999999
    vertex 399.0990845210217 -77.09760290856171 -11.49999999999999
    vertex 399.0990845210217 -76.09760290856171 -11.49999999999999
  endloop
endfacet
facet normal 1.0 0.0 0.0
  outer loop
    vertex 399.0990845210217 -65.09760290856173 -8.49999999999999
    vertex 399.0990845210217 -76.09760290856171 -11.49999999999999
    vertex 399.0990845210217 -65.09760290856173 -11.49999999999999
  endloop
endfacet
facet normal -1.0 0.0 0.0
  outer loop
    vertex 381.09908452102167 -82.09760290856171 -8.49999999999999
    vertex 381.09908452102167 -77.09760290856171 -11.49999999999999
    vertex 381.09908452102167 -82.09760290856171 -17.49999999999999
  endloop
endfacet
facet normal -1.0 0.0 0.0
  outer loop
    vertex 381.09908452102167 -77.09760290856171 -11.49999999999999
    vertex 381.09908452102167 -82.09760290856171 -8.49999999999999
    vertex 381.09908452102167 -65.09760290856173 -8.49999999999999
  endloop
endfacet
facet normal -1.0 0.0 0.0
  outer loop
    vertex 381.09908452102167 -77.09760290856171 -11.49999999999999
    vertex 381.09908452102167 -65.09760290856173 -8.49999999999999
    vertex 381.09908452102167 -76.09760290856171 -11.49999999999999
  endloop
endfacet
facet normal -1.0 0.0 0.0
  outer loop
    vertex 381.09908452102167 -76.09760290856171 -11.49999999999999
    vertex 381.09908452102167 -65.09760290856173 -8.49999999999999
    vertex 381.09908452102167 -65.09760290856173 -11.49999999999999
  endloop
endfacet
facet normal -1.0 0.0 0.0
  outer loop
    vertex 381.09908452102167 -77.09760290856171 -11.49999999999999
    vertex 381.09908452102167 -77.09760290856171 -17.49999999999999
    vertex 381.09908452102167 -82.09760290856171 -17.49999999999999
  endloop
endfacet
facet normal -1.0 0.0 0.0
  outer loop
    vertex 381.09908452102167 -77.09760290856171 -17.49999999999999
    vertex 381.09908452102167 -77.09760290856171 -11.49999999999999
    vertex 381.09908452102167 -77.09760290856171 -12.499999999999988
  endloop
endfacet
facet normal 0.0 1.0 0.0
  outer loop
    vertex 381.09908452102167 -65.09760290856173 -8.49999999999999
    vertex 399.0990845210217 -65.09760290856173 -11.49999999999999
    vertex 381.09908452102167 -65.09760290856173 -11.49999999999999
  endloop
endfacet
facet normal 0.0 1.0 0.0
  outer loop
    vertex 399.0990845210217 -65.09760290856173 -11.49999999999999
    vertex 381.09908452102167 -65.09760290856173 -8.49999999999999
    vertex 399.0990845210217 -65.09760290856173 -8.49999999999999
  endloop
endfacet
facet normal 0.0 0.0 -1.0
  outer loop
    vertex 399.0990845210217 -65.09760290856173 -11.49999999999999
    vertex 381.09908452102167 -76.09760290856171 -11.49999999999999
    vertex 381.09908452102167 -65.09760290856173 -11.49999999999999
  endloop
endfacet
facet normal 0.0 0.0 -1.0
  outer loop
    vertex 381.09908452102167 -76.09760290856171 -11.49999999999999
    vertex 399.0990845210217 -65.09760290856173 -11.49999999999999
    vertex 399.0990845210217 -76.09760290856171 -11.49999999999999
  endloop
endfacet
facet normal -1.0 0.0 0.0
  outer loop
    vertex 381.09908452102167 -76.09760290856171 -11.49999999999999
    vertex 381.09908452102167 -77.09760290856171 -12.499999999999988
    vertex 381.09908452102167 -77.09760290856171 -11.49999999999999
  endloop
endfacet
facet normal 1.0 0.0 0.0
  outer loop
    vertex 399.0990845210217 -76.09760290856171 -11.49999999999999
    vertex 399.0990845210217 -77.09760290856171 -11.49999999999999
    vertex 399.0990845210217 -77.09760290856171 -12.499999999999988
  endloop
endfacet
facet normal 0.0 0.7071067811865476 -0.7071067811865476
  outer loop
    vertex 381.09908452102167 -76.09760290856171 -11.49999999999999
    vertex 399.0990845210217 -77.09760290856171 -12.499999999999988
    vertex 381.09908452102167 -77.09760290856171 -12.499999999999988
  endloop
endfacet
facet normal 0.0 0.7071067811865476 -0.7071067811865476
  outer loop
    vertex 399.0990845210217 -77.09760290856171 -12.499999999999988
    vertex 381.09908452102167 -76.09760290856171 -11.49999999999999
    vertex 399.0990845210217 -76.09760290856171 -11.49999999999999
  endloop
endfacet
endsolid Fan shed 03
